<?xml version="1.0" encoding="UTF-8"?>
<svg id="Layer_2" data-name="Layer 2" xmlns="http://www.w3.org/2000/svg" width="226.77" height="90.71" viewBox="0 0 226.77 90.71">
  <defs>
    <style>
      .cls-1 {
        fill: #e5a80e;
      }

      .cls-2 {
        fill: #fff;
      }

      .cls-3 {
        fill: #ffc20e;
      }
    </style>
  </defs>
  <g id="Layer_1-2" data-name="Layer 1">
    <g>
      <rect class="cls-3" x="70.87" y="-68.03" width="85.04" height="226.77" transform="translate(158.74 -68.03) rotate(90)"/>
      <rect class="cls-1" y="87.87" width="226.77" height="2.83"/>
      <rect class="cls-1" width="226.77" height="2.83"/>
      <g>
        <circle cx="136.41" cy="36.36" r="3.71"/>
        <path class="cls-2" d="M136.79,47.92c-3.01-.13-5.71,1.24-7.42,3.41-.93,1.18-2.26,1.99-3.76,2.12-.24.02-.47.03-.72.03-2.25,0-4.28-.91-5.75-2.38s-2.38-3.5-2.38-5.75.91-4.28,2.38-5.75l11.45-11.45s.07-.08.11-.12c3.12-3.19,3.1-8.29-.06-11.45-3.17-3.17-8.33-3.17-11.5,0l-11.5,11.51c-1.48,1.47-3.51,2.38-5.76,2.38-.24,0-.48-.01-.71-.03-1.5-.13-2.83-.95-3.76-2.13-1.71-2.18-4.41-3.54-7.42-3.41-4.57.19-8.34,3.95-8.56,8.52-.24,5.14,3.86,9.37,8.94,9.37,2.85,0,5.38-1.33,7.02-3.4.94-1.18,2.27-2.01,3.77-2.15.23-.02.47-.03.71-.03,2.24,0,4.28.91,5.76,2.38,1.47,1.47,2.38,3.5,2.38,5.75s-.91,4.28-2.38,5.75l-11.35,11.35c-3.09,3.09-3.38,8.12-.45,11.36,3.13,3.46,8.45,3.59,11.74.36.04-.04.08-.08.12-.11l11.45-11.45c1.47-1.48,3.5-2.38,5.75-2.38.24,0,.48.01.71.03,1.51.13,2.84.96,3.78,2.15,1.64,2.07,4.17,3.4,7.02,3.4,5.08,0,9.18-4.24,8.94-9.37-.21-4.57-3.98-8.32-8.55-8.52Z"/>
      </g>
    </g>
  </g>
</svg>