<?xml version="1.0" encoding="UTF-8"?>
<svg id="Layer_2" data-name="Layer 2" xmlns="http://www.w3.org/2000/svg" width="226.77" height="90.71" viewBox="0 0 226.77 90.71">
  <defs>
    <style>
      .cls-1 {
        fill: #d2d2d2;
      }

      .cls-2 {
        fill: #a6a6a6;
      }

      .cls-3 {
        fill: #dcdcdc;
      }
    </style>
  </defs>
  <g id="Layer_1-2" data-name="Layer 1">
    <g>
      <rect class="cls-3" x="70.87" y="-68.03" width="85.04" height="226.77" transform="translate(158.74 -68.03) rotate(90)"/>
      <rect class="cls-2" y="87.87" width="226.77" height="2.83"/>
      <rect class="cls-2" width="226.77" height="2.83"/>
      <g>
        <g>
          <circle class="cls-1" cx="2.83" cy="85.04" r=".71"/>
          <circle class="cls-1" cx="8.5" cy="85.04" r=".71"/>
          <circle class="cls-1" cx="14.17" cy="85.04" r=".71"/>
          <circle class="cls-1" cx="19.84" cy="85.04" r=".71"/>
          <circle class="cls-1" cx="25.51" cy="85.04" r=".71"/>
          <circle class="cls-1" cx="31.18" cy="85.04" r=".71"/>
          <circle class="cls-1" cx="36.85" cy="85.04" r=".71"/>
          <circle class="cls-1" cx="42.52" cy="85.04" r=".71"/>
          <circle class="cls-1" cx="48.19" cy="85.04" r=".71"/>
          <circle class="cls-1" cx="53.86" cy="85.04" r=".71"/>
          <circle class="cls-1" cx="59.53" cy="85.04" r=".71"/>
          <circle class="cls-1" cx="65.2" cy="85.04" r=".71"/>
          <circle class="cls-1" cx="70.87" cy="85.04" r=".71"/>
          <circle class="cls-1" cx="76.54" cy="85.04" r=".71"/>
          <circle class="cls-1" cx="82.2" cy="85.04" r=".71"/>
          <circle class="cls-1" cx="87.87" cy="85.04" r=".71"/>
          <circle class="cls-1" cx="93.54" cy="85.04" r=".71"/>
          <circle class="cls-1" cx="99.21" cy="85.04" r=".71"/>
          <circle class="cls-1" cx="104.88" cy="85.04" r=".71"/>
          <circle class="cls-1" cx="110.55" cy="85.04" r=".71"/>
          <circle class="cls-1" cx="116.22" cy="85.04" r=".71"/>
          <circle class="cls-1" cx="121.89" cy="85.04" r=".71"/>
          <circle class="cls-1" cx="127.56" cy="85.04" r=".71"/>
          <circle class="cls-1" cx="133.23" cy="85.04" r=".71"/>
          <circle class="cls-1" cx="138.9" cy="85.04" r=".71"/>
          <circle class="cls-1" cx="144.57" cy="85.04" r=".71"/>
          <circle class="cls-1" cx="150.24" cy="85.04" r=".71"/>
          <circle class="cls-1" cx="155.91" cy="85.04" r=".71"/>
          <circle class="cls-1" cx="161.57" cy="85.04" r=".71"/>
          <circle class="cls-1" cx="167.24" cy="85.04" r=".71"/>
          <circle class="cls-1" cx="172.91" cy="85.04" r=".71"/>
          <circle class="cls-1" cx="178.58" cy="85.04" r=".71"/>
          <circle class="cls-1" cx="184.25" cy="85.04" r=".71"/>
          <circle class="cls-1" cx="189.92" cy="85.04" r=".71"/>
          <circle class="cls-1" cx="195.59" cy="85.04" r=".71"/>
          <circle class="cls-1" cx="201.26" cy="85.04" r=".71"/>
          <circle class="cls-1" cx="206.93" cy="85.04" r=".71"/>
          <circle class="cls-1" cx="212.6" cy="85.04" r=".71"/>
          <circle class="cls-1" cx="218.27" cy="85.04" r=".71"/>
          <circle class="cls-1" cx="223.94" cy="85.04" r=".71"/>
        </g>
        <g>
          <circle class="cls-1" cx="2.83" cy="79.37" r=".71"/>
          <circle class="cls-1" cx="8.5" cy="79.37" r=".71"/>
          <circle class="cls-1" cx="14.17" cy="79.37" r=".71"/>
          <circle class="cls-1" cx="19.84" cy="79.37" r=".71"/>
          <circle class="cls-1" cx="25.51" cy="79.37" r=".71"/>
          <circle class="cls-1" cx="31.18" cy="79.37" r=".71"/>
          <circle class="cls-1" cx="36.85" cy="79.37" r=".71"/>
          <circle class="cls-1" cx="42.52" cy="79.37" r=".71"/>
          <circle class="cls-1" cx="48.19" cy="79.37" r=".71"/>
          <circle class="cls-1" cx="53.86" cy="79.37" r=".71"/>
          <circle class="cls-1" cx="59.53" cy="79.37" r=".71"/>
          <circle class="cls-1" cx="65.2" cy="79.37" r=".71"/>
          <circle class="cls-1" cx="70.87" cy="79.37" r=".71"/>
          <circle class="cls-1" cx="76.54" cy="79.37" r=".71"/>
          <circle class="cls-1" cx="82.2" cy="79.37" r=".71"/>
          <circle class="cls-1" cx="87.87" cy="79.37" r=".71"/>
          <circle class="cls-1" cx="93.54" cy="79.37" r=".71"/>
          <circle class="cls-1" cx="99.21" cy="79.37" r=".71"/>
          <circle class="cls-1" cx="104.88" cy="79.37" r=".71"/>
          <circle class="cls-1" cx="110.55" cy="79.37" r=".71"/>
          <circle class="cls-1" cx="116.22" cy="79.37" r=".71"/>
          <circle class="cls-1" cx="121.89" cy="79.37" r=".71"/>
          <circle class="cls-1" cx="127.56" cy="79.37" r=".71"/>
          <circle class="cls-1" cx="133.23" cy="79.37" r=".71"/>
          <circle class="cls-1" cx="138.9" cy="79.37" r=".71"/>
          <circle class="cls-1" cx="144.57" cy="79.37" r=".71"/>
          <circle class="cls-1" cx="150.24" cy="79.37" r=".71"/>
          <circle class="cls-1" cx="155.91" cy="79.37" r=".71"/>
          <circle class="cls-1" cx="161.57" cy="79.37" r=".71"/>
          <circle class="cls-1" cx="167.24" cy="79.37" r=".71"/>
          <circle class="cls-1" cx="172.91" cy="79.37" r=".71"/>
          <circle class="cls-1" cx="178.58" cy="79.37" r=".71"/>
          <circle class="cls-1" cx="184.25" cy="79.37" r=".71"/>
          <circle class="cls-1" cx="189.92" cy="79.37" r=".71"/>
          <circle class="cls-1" cx="195.59" cy="79.37" r=".71"/>
          <circle class="cls-1" cx="201.26" cy="79.37" r=".71"/>
          <circle class="cls-1" cx="206.93" cy="79.37" r=".71"/>
          <circle class="cls-1" cx="212.6" cy="79.37" r=".71"/>
          <circle class="cls-1" cx="218.27" cy="79.37" r=".71"/>
          <circle class="cls-1" cx="223.94" cy="79.37" r=".71"/>
        </g>
        <g>
          <circle class="cls-1" cx="2.83" cy="73.7" r=".71"/>
          <circle class="cls-1" cx="8.5" cy="73.7" r=".71"/>
          <circle class="cls-1" cx="14.17" cy="73.7" r=".71"/>
          <circle class="cls-1" cx="19.84" cy="73.7" r=".71"/>
          <circle class="cls-1" cx="25.51" cy="73.7" r=".71"/>
          <circle class="cls-1" cx="31.18" cy="73.7" r=".71"/>
          <circle class="cls-1" cx="36.85" cy="73.7" r=".71"/>
          <circle class="cls-1" cx="42.52" cy="73.7" r=".71"/>
          <circle class="cls-1" cx="48.19" cy="73.7" r=".71"/>
          <circle class="cls-1" cx="53.86" cy="73.7" r=".71"/>
          <circle class="cls-1" cx="59.53" cy="73.7" r=".71"/>
          <circle class="cls-1" cx="65.2" cy="73.7" r=".71"/>
          <circle class="cls-1" cx="70.87" cy="73.7" r=".71"/>
          <circle class="cls-1" cx="76.54" cy="73.7" r=".71"/>
          <circle class="cls-1" cx="82.2" cy="73.7" r=".71"/>
          <circle class="cls-1" cx="87.87" cy="73.7" r=".71"/>
          <circle class="cls-1" cx="93.54" cy="73.7" r=".71"/>
          <circle class="cls-1" cx="99.21" cy="73.7" r=".71"/>
          <circle class="cls-1" cx="104.88" cy="73.7" r=".71"/>
          <circle class="cls-1" cx="110.55" cy="73.7" r=".71"/>
          <circle class="cls-1" cx="116.22" cy="73.7" r=".71"/>
          <circle class="cls-1" cx="121.89" cy="73.7" r=".71"/>
          <circle class="cls-1" cx="127.56" cy="73.7" r=".71"/>
          <circle class="cls-1" cx="133.23" cy="73.7" r=".71"/>
          <circle class="cls-1" cx="138.9" cy="73.7" r=".71"/>
          <circle class="cls-1" cx="144.57" cy="73.7" r=".71"/>
          <circle class="cls-1" cx="150.24" cy="73.7" r=".71"/>
          <circle class="cls-1" cx="155.91" cy="73.7" r=".71"/>
          <circle class="cls-1" cx="161.57" cy="73.7" r=".71"/>
          <circle class="cls-1" cx="167.24" cy="73.7" r=".71"/>
          <circle class="cls-1" cx="172.91" cy="73.7" r=".71"/>
          <circle class="cls-1" cx="178.58" cy="73.7" r=".71"/>
          <circle class="cls-1" cx="184.25" cy="73.7" r=".71"/>
          <circle class="cls-1" cx="189.92" cy="73.7" r=".71"/>
          <circle class="cls-1" cx="195.59" cy="73.7" r=".71"/>
          <circle class="cls-1" cx="201.26" cy="73.7" r=".71"/>
          <circle class="cls-1" cx="206.93" cy="73.7" r=".71"/>
          <circle class="cls-1" cx="212.6" cy="73.7" r=".71"/>
          <circle class="cls-1" cx="218.27" cy="73.7" r=".71"/>
          <circle class="cls-1" cx="223.94" cy="73.7" r=".71"/>
        </g>
        <g>
          <circle class="cls-1" cx="2.83" cy="68.03" r=".71"/>
          <circle class="cls-1" cx="8.5" cy="68.03" r=".71"/>
          <circle class="cls-1" cx="14.17" cy="68.03" r=".71"/>
          <circle class="cls-1" cx="19.84" cy="68.03" r=".71"/>
          <circle class="cls-1" cx="25.51" cy="68.03" r=".71"/>
          <circle class="cls-1" cx="31.18" cy="68.03" r=".71"/>
          <circle class="cls-1" cx="36.85" cy="68.03" r=".71"/>
          <circle class="cls-1" cx="42.52" cy="68.03" r=".71"/>
          <circle class="cls-1" cx="48.19" cy="68.03" r=".71"/>
          <circle class="cls-1" cx="53.86" cy="68.03" r=".71"/>
          <circle class="cls-1" cx="59.53" cy="68.03" r=".71"/>
          <circle class="cls-1" cx="65.2" cy="68.03" r=".71"/>
          <circle class="cls-1" cx="70.87" cy="68.03" r=".71"/>
          <circle class="cls-1" cx="76.54" cy="68.03" r=".71"/>
          <circle class="cls-1" cx="82.2" cy="68.03" r=".71"/>
          <circle class="cls-1" cx="87.87" cy="68.03" r=".71"/>
          <circle class="cls-1" cx="93.54" cy="68.03" r=".71"/>
          <circle class="cls-1" cx="99.21" cy="68.03" r=".71"/>
          <circle class="cls-1" cx="104.88" cy="68.03" r=".71"/>
          <circle class="cls-1" cx="110.55" cy="68.03" r=".71"/>
          <circle class="cls-1" cx="116.22" cy="68.03" r=".71"/>
          <circle class="cls-1" cx="121.89" cy="68.03" r=".71"/>
          <circle class="cls-1" cx="127.56" cy="68.03" r=".71"/>
          <circle class="cls-1" cx="133.23" cy="68.03" r=".71"/>
          <circle class="cls-1" cx="138.9" cy="68.03" r=".71"/>
          <circle class="cls-1" cx="144.57" cy="68.03" r=".71"/>
          <circle class="cls-1" cx="150.24" cy="68.03" r=".71"/>
          <circle class="cls-1" cx="155.91" cy="68.03" r=".71"/>
          <circle class="cls-1" cx="161.57" cy="68.03" r=".71"/>
          <circle class="cls-1" cx="167.24" cy="68.03" r=".71"/>
          <circle class="cls-1" cx="172.91" cy="68.03" r=".71"/>
          <circle class="cls-1" cx="178.58" cy="68.03" r=".71"/>
          <circle class="cls-1" cx="184.25" cy="68.03" r=".71"/>
          <circle class="cls-1" cx="189.92" cy="68.03" r=".71"/>
          <circle class="cls-1" cx="195.59" cy="68.03" r=".71"/>
          <circle class="cls-1" cx="201.26" cy="68.03" r=".71"/>
          <circle class="cls-1" cx="206.93" cy="68.03" r=".71"/>
          <circle class="cls-1" cx="212.6" cy="68.03" r=".71"/>
          <circle class="cls-1" cx="218.27" cy="68.03" r=".71"/>
          <circle class="cls-1" cx="223.94" cy="68.03" r=".71"/>
        </g>
        <g>
          <circle class="cls-1" cx="2.83" cy="62.36" r=".71"/>
          <circle class="cls-1" cx="8.5" cy="62.36" r=".71"/>
          <circle class="cls-1" cx="14.17" cy="62.36" r=".71"/>
          <circle class="cls-1" cx="19.84" cy="62.36" r=".71"/>
          <circle class="cls-1" cx="25.51" cy="62.36" r=".71"/>
          <circle class="cls-1" cx="31.18" cy="62.36" r=".71"/>
          <circle class="cls-1" cx="36.85" cy="62.36" r=".71"/>
          <circle class="cls-1" cx="42.52" cy="62.36" r=".71"/>
          <circle class="cls-1" cx="48.19" cy="62.36" r=".71"/>
          <circle class="cls-1" cx="53.86" cy="62.36" r=".71"/>
          <circle class="cls-1" cx="59.53" cy="62.36" r=".71"/>
          <circle class="cls-1" cx="65.2" cy="62.36" r=".71"/>
          <circle class="cls-1" cx="70.87" cy="62.36" r=".71"/>
          <circle class="cls-1" cx="76.54" cy="62.36" r=".71"/>
          <circle class="cls-1" cx="82.2" cy="62.36" r=".71"/>
          <circle class="cls-1" cx="87.87" cy="62.36" r=".71"/>
          <circle class="cls-1" cx="93.54" cy="62.36" r=".71"/>
          <circle class="cls-1" cx="99.21" cy="62.36" r=".71"/>
          <circle class="cls-1" cx="104.88" cy="62.36" r=".71"/>
          <circle class="cls-1" cx="110.55" cy="62.36" r=".71"/>
          <circle class="cls-1" cx="116.22" cy="62.36" r=".71"/>
          <circle class="cls-1" cx="121.89" cy="62.36" r=".71"/>
          <circle class="cls-1" cx="127.56" cy="62.36" r=".71"/>
          <circle class="cls-1" cx="133.23" cy="62.36" r=".71"/>
          <circle class="cls-1" cx="138.9" cy="62.36" r=".71"/>
          <circle class="cls-1" cx="144.57" cy="62.36" r=".71"/>
          <circle class="cls-1" cx="150.24" cy="62.36" r=".71"/>
          <circle class="cls-1" cx="155.91" cy="62.36" r=".71"/>
          <circle class="cls-1" cx="161.57" cy="62.36" r=".71"/>
          <circle class="cls-1" cx="167.24" cy="62.36" r=".71"/>
          <circle class="cls-1" cx="172.91" cy="62.36" r=".71"/>
          <circle class="cls-1" cx="178.58" cy="62.36" r=".71"/>
          <circle class="cls-1" cx="184.25" cy="62.36" r=".71"/>
          <circle class="cls-1" cx="189.92" cy="62.36" r=".71"/>
          <circle class="cls-1" cx="195.59" cy="62.36" r=".71"/>
          <circle class="cls-1" cx="201.26" cy="62.36" r=".71"/>
          <circle class="cls-1" cx="206.93" cy="62.36" r=".71"/>
          <circle class="cls-1" cx="212.6" cy="62.36" r=".71"/>
          <circle class="cls-1" cx="218.27" cy="62.36" r=".71"/>
          <circle class="cls-1" cx="223.94" cy="62.36" r=".71"/>
        </g>
        <g>
          <circle class="cls-1" cx="2.83" cy="56.69" r=".71"/>
          <circle class="cls-1" cx="8.5" cy="56.69" r=".71"/>
          <circle class="cls-1" cx="14.17" cy="56.69" r=".71"/>
          <circle class="cls-1" cx="19.84" cy="56.69" r=".71"/>
          <circle class="cls-1" cx="25.51" cy="56.69" r=".71"/>
          <circle class="cls-1" cx="31.18" cy="56.69" r=".71"/>
          <circle class="cls-1" cx="36.85" cy="56.69" r=".71"/>
          <circle class="cls-1" cx="42.52" cy="56.69" r=".71"/>
          <circle class="cls-1" cx="48.19" cy="56.69" r=".71"/>
          <circle class="cls-1" cx="53.86" cy="56.69" r=".71"/>
          <circle class="cls-1" cx="59.53" cy="56.69" r=".71"/>
          <circle class="cls-1" cx="65.2" cy="56.69" r=".71"/>
          <circle class="cls-1" cx="70.87" cy="56.69" r=".71"/>
          <circle class="cls-1" cx="76.54" cy="56.69" r=".71"/>
          <circle class="cls-1" cx="82.2" cy="56.69" r=".71"/>
          <circle class="cls-1" cx="87.87" cy="56.69" r=".71"/>
          <circle class="cls-1" cx="93.54" cy="56.69" r=".71"/>
          <circle class="cls-1" cx="99.21" cy="56.69" r=".71"/>
          <circle class="cls-1" cx="104.88" cy="56.69" r=".71"/>
          <circle class="cls-1" cx="110.55" cy="56.69" r=".71"/>
          <circle class="cls-1" cx="116.22" cy="56.69" r=".71"/>
          <circle class="cls-1" cx="121.89" cy="56.69" r=".71"/>
          <circle class="cls-1" cx="127.56" cy="56.69" r=".71"/>
          <circle class="cls-1" cx="133.23" cy="56.69" r=".71"/>
          <circle class="cls-1" cx="138.9" cy="56.69" r=".71"/>
          <circle class="cls-1" cx="144.57" cy="56.69" r=".71"/>
          <circle class="cls-1" cx="150.24" cy="56.69" r=".71"/>
          <circle class="cls-1" cx="155.91" cy="56.69" r=".71"/>
          <circle class="cls-1" cx="161.57" cy="56.69" r=".71"/>
          <circle class="cls-1" cx="167.24" cy="56.69" r=".71"/>
          <circle class="cls-1" cx="172.91" cy="56.69" r=".71"/>
          <circle class="cls-1" cx="178.58" cy="56.69" r=".71"/>
          <circle class="cls-1" cx="184.25" cy="56.69" r=".71"/>
          <circle class="cls-1" cx="189.92" cy="56.69" r=".71"/>
          <circle class="cls-1" cx="195.59" cy="56.69" r=".71"/>
          <circle class="cls-1" cx="201.26" cy="56.69" r=".71"/>
          <circle class="cls-1" cx="206.93" cy="56.69" r=".71"/>
          <circle class="cls-1" cx="212.6" cy="56.69" r=".71"/>
          <circle class="cls-1" cx="218.27" cy="56.69" r=".71"/>
          <circle class="cls-1" cx="223.94" cy="56.69" r=".71"/>
        </g>
        <g>
          <circle class="cls-1" cx="2.83" cy="51.02" r=".71"/>
          <circle class="cls-1" cx="8.5" cy="51.02" r=".71"/>
          <circle class="cls-1" cx="14.17" cy="51.02" r=".71"/>
          <circle class="cls-1" cx="19.84" cy="51.02" r=".71"/>
          <circle class="cls-1" cx="25.51" cy="51.02" r=".71"/>
          <circle class="cls-1" cx="31.18" cy="51.02" r=".71"/>
          <circle class="cls-1" cx="36.85" cy="51.02" r=".71"/>
          <circle class="cls-1" cx="42.52" cy="51.02" r=".71"/>
          <circle class="cls-1" cx="48.19" cy="51.02" r=".71"/>
          <circle class="cls-1" cx="53.86" cy="51.02" r=".71"/>
          <circle class="cls-1" cx="59.53" cy="51.02" r=".71"/>
          <circle class="cls-1" cx="65.2" cy="51.02" r=".71"/>
          <circle class="cls-1" cx="70.87" cy="51.02" r=".71"/>
          <circle class="cls-1" cx="76.54" cy="51.02" r=".71"/>
          <circle class="cls-1" cx="82.2" cy="51.02" r=".71"/>
          <circle class="cls-1" cx="87.87" cy="51.02" r=".71"/>
          <circle class="cls-1" cx="93.54" cy="51.02" r=".71"/>
          <circle class="cls-1" cx="99.21" cy="51.02" r=".71"/>
          <circle class="cls-1" cx="104.88" cy="51.02" r=".71"/>
          <circle class="cls-1" cx="110.55" cy="51.02" r=".71"/>
          <circle class="cls-1" cx="116.22" cy="51.02" r=".71"/>
          <circle class="cls-1" cx="121.89" cy="51.02" r=".71"/>
          <circle class="cls-1" cx="127.56" cy="51.02" r=".71"/>
          <circle class="cls-1" cx="133.23" cy="51.02" r=".71"/>
          <circle class="cls-1" cx="138.9" cy="51.02" r=".71"/>
          <circle class="cls-1" cx="144.57" cy="51.02" r=".71"/>
          <circle class="cls-1" cx="150.24" cy="51.02" r=".71"/>
          <circle class="cls-1" cx="155.91" cy="51.02" r=".71"/>
          <circle class="cls-1" cx="161.57" cy="51.02" r=".71"/>
          <circle class="cls-1" cx="167.24" cy="51.02" r=".71"/>
          <circle class="cls-1" cx="172.91" cy="51.02" r=".71"/>
          <circle class="cls-1" cx="178.58" cy="51.02" r=".71"/>
          <circle class="cls-1" cx="184.25" cy="51.02" r=".71"/>
          <circle class="cls-1" cx="189.92" cy="51.02" r=".71"/>
          <circle class="cls-1" cx="195.59" cy="51.02" r=".71"/>
          <circle class="cls-1" cx="201.26" cy="51.02" r=".71"/>
          <circle class="cls-1" cx="206.93" cy="51.02" r=".71"/>
          <circle class="cls-1" cx="212.6" cy="51.02" r=".71"/>
          <circle class="cls-1" cx="218.27" cy="51.02" r=".71"/>
          <circle class="cls-1" cx="223.94" cy="51.02" r=".71"/>
        </g>
        <g>
          <circle class="cls-1" cx="2.83" cy="45.35" r=".71"/>
          <circle class="cls-1" cx="8.5" cy="45.35" r=".71"/>
          <circle class="cls-1" cx="14.17" cy="45.35" r=".71"/>
          <circle class="cls-1" cx="19.84" cy="45.35" r=".71"/>
          <circle class="cls-1" cx="25.51" cy="45.35" r=".71"/>
          <circle class="cls-1" cx="31.18" cy="45.35" r=".71"/>
          <circle class="cls-1" cx="36.85" cy="45.35" r=".71"/>
          <circle class="cls-1" cx="42.52" cy="45.35" r=".71"/>
          <circle class="cls-1" cx="48.19" cy="45.35" r=".71"/>
          <circle class="cls-1" cx="53.86" cy="45.35" r=".71"/>
          <circle class="cls-1" cx="59.53" cy="45.35" r=".71"/>
          <circle class="cls-1" cx="65.2" cy="45.35" r=".71"/>
          <circle class="cls-1" cx="70.87" cy="45.35" r=".71"/>
          <circle class="cls-1" cx="76.54" cy="45.35" r=".71"/>
          <circle class="cls-1" cx="82.2" cy="45.35" r=".71"/>
          <circle class="cls-1" cx="87.87" cy="45.35" r=".71"/>
          <circle class="cls-1" cx="93.54" cy="45.35" r=".71"/>
          <circle class="cls-1" cx="99.21" cy="45.35" r=".71"/>
          <circle class="cls-1" cx="104.88" cy="45.35" r=".71"/>
          <circle class="cls-1" cx="110.55" cy="45.35" r=".71"/>
          <circle class="cls-1" cx="116.22" cy="45.35" r=".71"/>
          <circle class="cls-1" cx="121.89" cy="45.35" r=".71"/>
          <circle class="cls-1" cx="127.56" cy="45.35" r=".71"/>
          <circle class="cls-1" cx="133.23" cy="45.35" r=".71"/>
          <circle class="cls-1" cx="138.9" cy="45.35" r=".71"/>
          <circle class="cls-1" cx="144.57" cy="45.35" r=".71"/>
          <circle class="cls-1" cx="150.24" cy="45.35" r=".71"/>
          <circle class="cls-1" cx="155.91" cy="45.35" r=".71"/>
          <circle class="cls-1" cx="161.57" cy="45.35" r=".71"/>
          <circle class="cls-1" cx="167.24" cy="45.35" r=".71"/>
          <circle class="cls-1" cx="172.91" cy="45.35" r=".71"/>
          <circle class="cls-1" cx="178.58" cy="45.35" r=".71"/>
          <circle class="cls-1" cx="184.25" cy="45.35" r=".71"/>
          <circle class="cls-1" cx="189.92" cy="45.35" r=".71"/>
          <circle class="cls-1" cx="195.59" cy="45.35" r=".71"/>
          <circle class="cls-1" cx="201.26" cy="45.35" r=".71"/>
          <circle class="cls-1" cx="206.93" cy="45.35" r=".71"/>
          <circle class="cls-1" cx="212.6" cy="45.35" r=".71"/>
          <circle class="cls-1" cx="218.27" cy="45.35" r=".71"/>
          <circle class="cls-1" cx="223.94" cy="45.35" r=".71"/>
        </g>
        <g>
          <circle class="cls-1" cx="2.83" cy="39.69" r=".71"/>
          <circle class="cls-1" cx="8.5" cy="39.69" r=".71"/>
          <circle class="cls-1" cx="14.17" cy="39.69" r=".71"/>
          <circle class="cls-1" cx="19.84" cy="39.69" r=".71"/>
          <circle class="cls-1" cx="25.51" cy="39.69" r=".71"/>
          <circle class="cls-1" cx="31.18" cy="39.69" r=".71"/>
          <circle class="cls-1" cx="36.85" cy="39.69" r=".71"/>
          <circle class="cls-1" cx="42.52" cy="39.69" r=".71"/>
          <circle class="cls-1" cx="48.19" cy="39.69" r=".71"/>
          <circle class="cls-1" cx="53.86" cy="39.69" r=".71"/>
          <circle class="cls-1" cx="59.53" cy="39.69" r=".71"/>
          <circle class="cls-1" cx="65.2" cy="39.69" r=".71"/>
          <circle class="cls-1" cx="70.87" cy="39.69" r=".71"/>
          <circle class="cls-1" cx="76.54" cy="39.69" r=".71"/>
          <circle class="cls-1" cx="82.2" cy="39.69" r=".71"/>
          <circle class="cls-1" cx="87.87" cy="39.69" r=".71"/>
          <circle class="cls-1" cx="93.54" cy="39.69" r=".71"/>
          <circle class="cls-1" cx="99.21" cy="39.69" r=".71"/>
          <circle class="cls-1" cx="104.88" cy="39.69" r=".71"/>
          <circle class="cls-1" cx="110.55" cy="39.69" r=".71"/>
          <circle class="cls-1" cx="116.22" cy="39.69" r=".71"/>
          <circle class="cls-1" cx="121.89" cy="39.69" r=".71"/>
          <circle class="cls-1" cx="127.56" cy="39.69" r=".71"/>
          <circle class="cls-1" cx="133.23" cy="39.69" r=".71"/>
          <circle class="cls-1" cx="138.9" cy="39.69" r=".71"/>
          <circle class="cls-1" cx="144.57" cy="39.69" r=".71"/>
          <circle class="cls-1" cx="150.24" cy="39.69" r=".71"/>
          <circle class="cls-1" cx="155.91" cy="39.69" r=".71"/>
          <circle class="cls-1" cx="161.57" cy="39.69" r=".71"/>
          <circle class="cls-1" cx="167.24" cy="39.69" r=".71"/>
          <circle class="cls-1" cx="172.91" cy="39.69" r=".71"/>
          <circle class="cls-1" cx="178.58" cy="39.69" r=".71"/>
          <circle class="cls-1" cx="184.25" cy="39.69" r=".71"/>
          <circle class="cls-1" cx="189.92" cy="39.69" r=".71"/>
          <circle class="cls-1" cx="195.59" cy="39.69" r=".71"/>
          <circle class="cls-1" cx="201.26" cy="39.69" r=".71"/>
          <circle class="cls-1" cx="206.93" cy="39.69" r=".71"/>
          <circle class="cls-1" cx="212.6" cy="39.69" r=".71"/>
          <circle class="cls-1" cx="218.27" cy="39.69" r=".71"/>
          <circle class="cls-1" cx="223.94" cy="39.69" r=".71"/>
        </g>
        <g>
          <circle class="cls-1" cx="2.83" cy="34.02" r=".71"/>
          <circle class="cls-1" cx="8.5" cy="34.02" r=".71"/>
          <circle class="cls-1" cx="14.17" cy="34.02" r=".71"/>
          <circle class="cls-1" cx="19.84" cy="34.02" r=".71"/>
          <circle class="cls-1" cx="25.51" cy="34.02" r=".71"/>
          <circle class="cls-1" cx="31.18" cy="34.02" r=".71"/>
          <circle class="cls-1" cx="36.85" cy="34.02" r=".71"/>
          <circle class="cls-1" cx="42.52" cy="34.02" r=".71"/>
          <circle class="cls-1" cx="48.19" cy="34.02" r=".71"/>
          <circle class="cls-1" cx="53.86" cy="34.02" r=".71"/>
          <circle class="cls-1" cx="59.53" cy="34.02" r=".71"/>
          <circle class="cls-1" cx="65.2" cy="34.02" r=".71"/>
          <circle class="cls-1" cx="70.87" cy="34.02" r=".71"/>
          <circle class="cls-1" cx="76.54" cy="34.02" r=".71"/>
          <circle class="cls-1" cx="82.2" cy="34.02" r=".71"/>
          <circle class="cls-1" cx="87.87" cy="34.02" r=".71"/>
          <circle class="cls-1" cx="93.54" cy="34.02" r=".71"/>
          <circle class="cls-1" cx="99.21" cy="34.02" r=".71"/>
          <circle class="cls-1" cx="104.88" cy="34.02" r=".71"/>
          <circle class="cls-1" cx="110.55" cy="34.02" r=".71"/>
          <circle class="cls-1" cx="116.22" cy="34.02" r=".71"/>
          <circle class="cls-1" cx="121.89" cy="34.02" r=".71"/>
          <circle class="cls-1" cx="127.56" cy="34.02" r=".71"/>
          <circle class="cls-1" cx="133.23" cy="34.02" r=".71"/>
          <circle class="cls-1" cx="138.9" cy="34.02" r=".71"/>
          <circle class="cls-1" cx="144.57" cy="34.02" r=".71"/>
          <circle class="cls-1" cx="150.24" cy="34.02" r=".71"/>
          <circle class="cls-1" cx="155.91" cy="34.02" r=".71"/>
          <circle class="cls-1" cx="161.57" cy="34.02" r=".71"/>
          <circle class="cls-1" cx="167.24" cy="34.02" r=".71"/>
          <circle class="cls-1" cx="172.91" cy="34.02" r=".71"/>
          <circle class="cls-1" cx="178.58" cy="34.02" r=".71"/>
          <circle class="cls-1" cx="184.25" cy="34.02" r=".71"/>
          <circle class="cls-1" cx="189.92" cy="34.02" r=".71"/>
          <circle class="cls-1" cx="195.59" cy="34.02" r=".71"/>
          <circle class="cls-1" cx="201.26" cy="34.02" r=".71"/>
          <circle class="cls-1" cx="206.93" cy="34.02" r=".71"/>
          <circle class="cls-1" cx="212.6" cy="34.02" r=".71"/>
          <circle class="cls-1" cx="218.27" cy="34.02" r=".71"/>
          <circle class="cls-1" cx="223.94" cy="34.02" r=".71"/>
        </g>
        <g>
          <circle class="cls-1" cx="2.83" cy="28.35" r=".71"/>
          <circle class="cls-1" cx="8.5" cy="28.35" r=".71"/>
          <circle class="cls-1" cx="14.17" cy="28.35" r=".71"/>
          <circle class="cls-1" cx="19.84" cy="28.35" r=".71"/>
          <circle class="cls-1" cx="25.51" cy="28.35" r=".71"/>
          <circle class="cls-1" cx="31.18" cy="28.35" r=".71"/>
          <circle class="cls-1" cx="36.85" cy="28.35" r=".71"/>
          <circle class="cls-1" cx="42.52" cy="28.35" r=".71"/>
          <circle class="cls-1" cx="48.19" cy="28.35" r=".71"/>
          <circle class="cls-1" cx="53.86" cy="28.35" r=".71"/>
          <circle class="cls-1" cx="59.53" cy="28.35" r=".71"/>
          <circle class="cls-1" cx="65.2" cy="28.35" r=".71"/>
          <circle class="cls-1" cx="70.87" cy="28.35" r=".71"/>
          <circle class="cls-1" cx="76.54" cy="28.35" r=".71"/>
          <circle class="cls-1" cx="82.2" cy="28.35" r=".71"/>
          <circle class="cls-1" cx="87.87" cy="28.35" r=".71"/>
          <circle class="cls-1" cx="93.54" cy="28.35" r=".71"/>
          <circle class="cls-1" cx="99.21" cy="28.35" r=".71"/>
          <circle class="cls-1" cx="104.88" cy="28.35" r=".71"/>
          <circle class="cls-1" cx="110.55" cy="28.35" r=".71"/>
          <circle class="cls-1" cx="116.22" cy="28.35" r=".71"/>
          <circle class="cls-1" cx="121.89" cy="28.35" r=".71"/>
          <circle class="cls-1" cx="127.56" cy="28.35" r=".71"/>
          <circle class="cls-1" cx="133.23" cy="28.35" r=".71"/>
          <circle class="cls-1" cx="138.9" cy="28.35" r=".71"/>
          <circle class="cls-1" cx="144.57" cy="28.35" r=".71"/>
          <circle class="cls-1" cx="150.24" cy="28.35" r=".71"/>
          <circle class="cls-1" cx="155.91" cy="28.35" r=".71"/>
          <circle class="cls-1" cx="161.57" cy="28.35" r=".71"/>
          <circle class="cls-1" cx="167.24" cy="28.35" r=".71"/>
          <circle class="cls-1" cx="172.91" cy="28.35" r=".71"/>
          <circle class="cls-1" cx="178.58" cy="28.35" r=".71"/>
          <circle class="cls-1" cx="184.25" cy="28.35" r=".71"/>
          <circle class="cls-1" cx="189.92" cy="28.35" r=".71"/>
          <circle class="cls-1" cx="195.59" cy="28.35" r=".71"/>
          <circle class="cls-1" cx="201.26" cy="28.35" r=".71"/>
          <circle class="cls-1" cx="206.93" cy="28.35" r=".71"/>
          <circle class="cls-1" cx="212.6" cy="28.35" r=".71"/>
          <circle class="cls-1" cx="218.27" cy="28.35" r=".71"/>
          <circle class="cls-1" cx="223.94" cy="28.35" r=".71"/>
        </g>
        <g>
          <circle class="cls-1" cx="2.83" cy="22.68" r=".71"/>
          <circle class="cls-1" cx="8.5" cy="22.68" r=".71"/>
          <circle class="cls-1" cx="14.17" cy="22.68" r=".71"/>
          <circle class="cls-1" cx="19.84" cy="22.68" r=".71"/>
          <circle class="cls-1" cx="25.51" cy="22.68" r=".71"/>
          <circle class="cls-1" cx="31.18" cy="22.68" r=".71"/>
          <circle class="cls-1" cx="36.85" cy="22.68" r=".71"/>
          <circle class="cls-1" cx="42.52" cy="22.68" r=".71"/>
          <circle class="cls-1" cx="48.19" cy="22.68" r=".71"/>
          <circle class="cls-1" cx="53.86" cy="22.68" r=".71"/>
          <circle class="cls-1" cx="59.53" cy="22.68" r=".71"/>
          <circle class="cls-1" cx="65.2" cy="22.68" r=".71"/>
          <circle class="cls-1" cx="70.87" cy="22.68" r=".71"/>
          <circle class="cls-1" cx="76.54" cy="22.68" r=".71"/>
          <circle class="cls-1" cx="82.2" cy="22.68" r=".71"/>
          <circle class="cls-1" cx="87.87" cy="22.68" r=".71"/>
          <circle class="cls-1" cx="93.54" cy="22.68" r=".71"/>
          <circle class="cls-1" cx="99.21" cy="22.68" r=".71"/>
          <circle class="cls-1" cx="104.88" cy="22.68" r=".71"/>
          <circle class="cls-1" cx="110.55" cy="22.68" r=".71"/>
          <circle class="cls-1" cx="116.22" cy="22.68" r=".71"/>
          <circle class="cls-1" cx="121.89" cy="22.68" r=".71"/>
          <circle class="cls-1" cx="127.56" cy="22.68" r=".71"/>
          <circle class="cls-1" cx="133.23" cy="22.68" r=".71"/>
          <circle class="cls-1" cx="138.9" cy="22.68" r=".71"/>
          <circle class="cls-1" cx="144.57" cy="22.68" r=".71"/>
          <circle class="cls-1" cx="150.24" cy="22.68" r=".71"/>
          <circle class="cls-1" cx="155.91" cy="22.68" r=".71"/>
          <circle class="cls-1" cx="161.57" cy="22.68" r=".71"/>
          <circle class="cls-1" cx="167.24" cy="22.68" r=".71"/>
          <circle class="cls-1" cx="172.91" cy="22.68" r=".71"/>
          <circle class="cls-1" cx="178.58" cy="22.68" r=".71"/>
          <circle class="cls-1" cx="184.25" cy="22.68" r=".71"/>
          <circle class="cls-1" cx="189.92" cy="22.68" r=".71"/>
          <circle class="cls-1" cx="195.59" cy="22.68" r=".71"/>
          <circle class="cls-1" cx="201.26" cy="22.68" r=".71"/>
          <circle class="cls-1" cx="206.93" cy="22.68" r=".71"/>
          <circle class="cls-1" cx="212.6" cy="22.68" r=".71"/>
          <circle class="cls-1" cx="218.27" cy="22.68" r=".71"/>
          <circle class="cls-1" cx="223.94" cy="22.68" r=".71"/>
        </g>
        <g>
          <circle class="cls-1" cx="2.83" cy="17.01" r=".71"/>
          <circle class="cls-1" cx="8.5" cy="17.01" r=".71"/>
          <circle class="cls-1" cx="14.17" cy="17.01" r=".71"/>
          <circle class="cls-1" cx="19.84" cy="17.01" r=".71"/>
          <circle class="cls-1" cx="25.51" cy="17.01" r=".71"/>
          <circle class="cls-1" cx="31.18" cy="17.01" r=".71"/>
          <circle class="cls-1" cx="36.85" cy="17.01" r=".71"/>
          <circle class="cls-1" cx="42.52" cy="17.01" r=".71"/>
          <circle class="cls-1" cx="48.19" cy="17.01" r=".71"/>
          <circle class="cls-1" cx="53.86" cy="17.01" r=".71"/>
          <circle class="cls-1" cx="59.53" cy="17.01" r=".71"/>
          <circle class="cls-1" cx="65.2" cy="17.01" r=".71"/>
          <circle class="cls-1" cx="70.87" cy="17.01" r=".71"/>
          <circle class="cls-1" cx="76.54" cy="17.01" r=".71"/>
          <circle class="cls-1" cx="82.2" cy="17.01" r=".71"/>
          <circle class="cls-1" cx="87.87" cy="17.01" r=".71"/>
          <circle class="cls-1" cx="93.54" cy="17.01" r=".71"/>
          <circle class="cls-1" cx="99.21" cy="17.01" r=".71"/>
          <circle class="cls-1" cx="104.88" cy="17.01" r=".71"/>
          <circle class="cls-1" cx="110.55" cy="17.01" r=".71"/>
          <circle class="cls-1" cx="116.22" cy="17.01" r=".71"/>
          <circle class="cls-1" cx="121.89" cy="17.01" r=".71"/>
          <circle class="cls-1" cx="127.56" cy="17.01" r=".71"/>
          <circle class="cls-1" cx="133.23" cy="17.01" r=".71"/>
          <circle class="cls-1" cx="138.9" cy="17.01" r=".71"/>
          <circle class="cls-1" cx="144.57" cy="17.01" r=".71"/>
          <circle class="cls-1" cx="150.24" cy="17.01" r=".71"/>
          <circle class="cls-1" cx="155.91" cy="17.01" r=".71"/>
          <circle class="cls-1" cx="161.57" cy="17.01" r=".71"/>
          <circle class="cls-1" cx="167.24" cy="17.01" r=".71"/>
          <circle class="cls-1" cx="172.91" cy="17.01" r=".71"/>
          <circle class="cls-1" cx="178.58" cy="17.01" r=".71"/>
          <circle class="cls-1" cx="184.25" cy="17.01" r=".71"/>
          <circle class="cls-1" cx="189.92" cy="17.01" r=".71"/>
          <circle class="cls-1" cx="195.59" cy="17.01" r=".71"/>
          <circle class="cls-1" cx="201.26" cy="17.01" r=".71"/>
          <circle class="cls-1" cx="206.93" cy="17.01" r=".71"/>
          <circle class="cls-1" cx="212.6" cy="17.01" r=".71"/>
          <circle class="cls-1" cx="218.27" cy="17.01" r=".71"/>
          <circle class="cls-1" cx="223.94" cy="17.01" r=".71"/>
        </g>
        <g>
          <circle class="cls-1" cx="2.83" cy="11.34" r=".71"/>
          <circle class="cls-1" cx="8.5" cy="11.34" r=".71"/>
          <circle class="cls-1" cx="14.17" cy="11.34" r=".71"/>
          <circle class="cls-1" cx="19.84" cy="11.34" r=".71"/>
          <circle class="cls-1" cx="25.51" cy="11.34" r=".71"/>
          <circle class="cls-1" cx="31.18" cy="11.34" r=".71"/>
          <circle class="cls-1" cx="36.85" cy="11.34" r=".71"/>
          <circle class="cls-1" cx="42.52" cy="11.34" r=".71"/>
          <circle class="cls-1" cx="48.19" cy="11.34" r=".71"/>
          <circle class="cls-1" cx="53.86" cy="11.34" r=".71"/>
          <circle class="cls-1" cx="59.53" cy="11.34" r=".71"/>
          <circle class="cls-1" cx="65.2" cy="11.34" r=".71"/>
          <circle class="cls-1" cx="70.87" cy="11.34" r=".71"/>
          <circle class="cls-1" cx="76.54" cy="11.34" r=".71"/>
          <circle class="cls-1" cx="82.2" cy="11.34" r=".71"/>
          <circle class="cls-1" cx="87.87" cy="11.34" r=".71"/>
          <circle class="cls-1" cx="93.54" cy="11.34" r=".71"/>
          <circle class="cls-1" cx="99.21" cy="11.34" r=".71"/>
          <circle class="cls-1" cx="104.88" cy="11.34" r=".71"/>
          <circle class="cls-1" cx="110.55" cy="11.34" r=".71"/>
          <circle class="cls-1" cx="116.22" cy="11.34" r=".71"/>
          <circle class="cls-1" cx="121.89" cy="11.34" r=".71"/>
          <circle class="cls-1" cx="127.56" cy="11.34" r=".71"/>
          <circle class="cls-1" cx="133.23" cy="11.34" r=".71"/>
          <circle class="cls-1" cx="138.9" cy="11.34" r=".71"/>
          <circle class="cls-1" cx="144.57" cy="11.34" r=".71"/>
          <circle class="cls-1" cx="150.24" cy="11.34" r=".71"/>
          <circle class="cls-1" cx="155.91" cy="11.34" r=".71"/>
          <circle class="cls-1" cx="161.57" cy="11.34" r=".71"/>
          <circle class="cls-1" cx="167.24" cy="11.34" r=".71"/>
          <circle class="cls-1" cx="172.91" cy="11.34" r=".71"/>
          <circle class="cls-1" cx="178.58" cy="11.34" r=".71"/>
          <circle class="cls-1" cx="184.25" cy="11.34" r=".71"/>
          <circle class="cls-1" cx="189.92" cy="11.34" r=".71"/>
          <circle class="cls-1" cx="195.59" cy="11.34" r=".71"/>
          <circle class="cls-1" cx="201.26" cy="11.34" r=".71"/>
          <circle class="cls-1" cx="206.93" cy="11.34" r=".71"/>
          <circle class="cls-1" cx="212.6" cy="11.34" r=".71"/>
          <circle class="cls-1" cx="218.27" cy="11.34" r=".71"/>
          <circle class="cls-1" cx="223.94" cy="11.34" r=".71"/>
        </g>
        <g>
          <circle class="cls-1" cx="2.83" cy="5.67" r=".71"/>
          <circle class="cls-1" cx="8.5" cy="5.67" r=".71"/>
          <circle class="cls-1" cx="14.17" cy="5.67" r=".71"/>
          <circle class="cls-1" cx="19.84" cy="5.67" r=".71"/>
          <circle class="cls-1" cx="25.51" cy="5.67" r=".71"/>
          <circle class="cls-1" cx="31.18" cy="5.67" r=".71"/>
          <circle class="cls-1" cx="36.85" cy="5.67" r=".71"/>
          <circle class="cls-1" cx="42.52" cy="5.67" r=".71"/>
          <circle class="cls-1" cx="48.19" cy="5.67" r=".71"/>
          <circle class="cls-1" cx="53.86" cy="5.67" r=".71"/>
          <circle class="cls-1" cx="59.53" cy="5.67" r=".71"/>
          <circle class="cls-1" cx="65.2" cy="5.67" r=".71"/>
          <circle class="cls-1" cx="70.87" cy="5.67" r=".71"/>
          <circle class="cls-1" cx="76.54" cy="5.67" r=".71"/>
          <circle class="cls-1" cx="82.2" cy="5.67" r=".71"/>
          <circle class="cls-1" cx="87.87" cy="5.67" r=".71"/>
          <circle class="cls-1" cx="93.54" cy="5.67" r=".71"/>
          <circle class="cls-1" cx="99.21" cy="5.67" r=".71"/>
          <circle class="cls-1" cx="104.88" cy="5.67" r=".71"/>
          <circle class="cls-1" cx="110.55" cy="5.67" r=".71"/>
          <circle class="cls-1" cx="116.22" cy="5.67" r=".71"/>
          <circle class="cls-1" cx="121.89" cy="5.67" r=".71"/>
          <circle class="cls-1" cx="127.56" cy="5.67" r=".71"/>
          <circle class="cls-1" cx="133.23" cy="5.67" r=".71"/>
          <circle class="cls-1" cx="138.9" cy="5.67" r=".71"/>
          <circle class="cls-1" cx="144.57" cy="5.67" r=".71"/>
          <circle class="cls-1" cx="150.24" cy="5.67" r=".71"/>
          <circle class="cls-1" cx="155.91" cy="5.67" r=".71"/>
          <circle class="cls-1" cx="161.57" cy="5.67" r=".71"/>
          <circle class="cls-1" cx="167.24" cy="5.67" r=".71"/>
          <circle class="cls-1" cx="172.91" cy="5.67" r=".71"/>
          <circle class="cls-1" cx="178.58" cy="5.67" r=".71"/>
          <circle class="cls-1" cx="184.25" cy="5.67" r=".71"/>
          <circle class="cls-1" cx="189.92" cy="5.67" r=".71"/>
          <circle class="cls-1" cx="195.59" cy="5.67" r=".71"/>
          <circle class="cls-1" cx="201.26" cy="5.67" r=".71"/>
          <circle class="cls-1" cx="206.93" cy="5.67" r=".71"/>
          <circle class="cls-1" cx="212.6" cy="5.67" r=".71"/>
          <circle class="cls-1" cx="218.27" cy="5.67" r=".71"/>
          <circle class="cls-1" cx="223.94" cy="5.67" r=".71"/>
        </g>
      </g>
    </g>
  </g>
</svg>