<?xml version="1.0" encoding="UTF-8"?>
<svg id="Layer_2" data-name="Layer 2" xmlns="http://www.w3.org/2000/svg" width="205.28" height="123.63" viewBox="0 0 205.28 123.63">
  <defs>
    <style>
      .cls-1 {
        fill: #00adee;
      }

      .cls-2 {
        fill: #fff;
      }

      .cls-3 {
        fill: #fff100;
      }

      .cls-4 {
        fill: #eb008b;
      }
    </style>
  </defs>
  <g id="Layer_1-2" data-name="Layer 1">
    <g>
      <g>
        <path d="M184.43,69.84c-.21-1.32.71-2.18,2.06-1.92s2.62,1.55,2.85,2.87c.22,1.31-.7,2.16-2.06,1.9-1.36-.26-2.64-1.54-2.85-2.85Z"/>
        <path d="M195.06,84.42c.38,1.67-.01,3.04-.93,3.91s-2.37,1.24-4.11.9c-.98-.19-1.93-.58-2.81-1.11-.88-.53-1.68-1.21-2.35-1.97-.75-.87-1.76-1.59-2.79-1.84-.16-.04-.33-.08-.48-.1-1.54-.27-2.84.07-3.71.85-1.36,1.21-2.39,2.12-3.43,3.03-1.04.91-2.08,1.82-3.49,3.05-.02.01-.03.04-.07.06-1.01.86-2.45,1.14-3.95.89-1.49-.24-3.04-1.01-4.25-2.25-1.14-1.16-1.74-2.54-1.82-3.84-.08-1.29.36-2.51,1.31-3.35,1.4-1.25,2.43-2.18,3.46-3.1,1.03-.93,2.06-1.85,3.41-3.07.87-.79,1.32-2,1.13-3.43-.19-1.44-.98-2.84-2.08-3.92-1.1-1.08-2.53-1.86-4.02-2.07-.16-.02-.33-.03-.47-.04-.98-.06-1.82.36-2.36,1.03-.94,1.17-2.55,1.8-4.45,1.57-1.14-.14-2.24-.56-3.19-1.18-.96-.63-1.78-1.45-2.37-2.39-.59-.93-.96-1.99-1.01-3.07-.06-1.44.47-2.69,1.39-3.56.92-.86,2.23-1.33,3.72-1.22.98.08,1.94.4,2.81.88.87.49,1.66,1.15,2.3,1.92.7.83,1.65,1.47,2.64,1.69.16.03.31.06.47.08,1.48.21,2.74-.19,3.6-.98,1.32-1.25,2.3-2.18,3.27-3.11.98-.92,1.94-1.85,3.22-3.08.88-.84,2.14-1.12,3.48-.89,1.34.24,2.75.98,3.93,2.19,1.18,1.2,1.91,2.62,2.13,3.95.22,1.33-.06,2.57-.92,3.4-.03.02-.04.05-.06.06-1.27,1.2-2.23,2.1-3.19,3-.97.9-1.94,1.81-3.26,3.02-.84.78-1.27,1.98-1.07,3.43.2,1.43,1,2.83,2.13,3.93,1.12,1.11,2.59,1.93,4.11,2.19.17.03.32.05.48.07.99.1,1.82-.27,2.33-.91.47-.59,1.11-1.03,1.9-1.25.79-.23,1.71-.24,2.73,0,1.54.35,3.04,1.27,4.25,2.46,1.2,1.2,2.11,2.68,2.44,4.17Z"/>
        <path d="M126.45,53.56c-.58-.92-1.34-1.68-2.26-2.26-.92-.59-1.92-.9-3.01-.95-1.91-.07-3.34-.12-4.76-.16-1.43-.04-2.86-.08-4.77-.11.02,1.58.05,2.89.06,4.12.02,1.23.04,2.37.06,3.6.02,1.23.04,2.55.07,4.13,1.95.03,3.42.07,4.88.11,1.47.05,2.93.09,4.89.17,1.11.05,2.12-.17,3.01-.67s1.6-1.18,2.11-2.04c.51-.87.73-1.85.68-2.93-.05-1.08-.37-2.09-.96-3.01ZM126.45,53.56c-.58-.92-1.34-1.68-2.26-2.26-.92-.59-1.92-.9-3.01-.95-1.91-.07-3.34-.12-4.76-.16-1.43-.04-2.86-.08-4.77-.11.02,1.58.05,2.89.06,4.12.02,1.23.04,2.37.06,3.6.02,1.23.04,2.55.07,4.13,1.95.03,3.42.07,4.88.11,1.47.05,2.93.09,4.89.17,1.11.05,2.12-.17,3.01-.67s1.6-1.18,2.11-2.04c.51-.87.73-1.85.68-2.93-.05-1.08-.37-2.09-.96-3.01ZM201.83,69.2c-3.55-7.58-8.32-13.23-8.32-13.23,1.38-2.23,5.27-18.98,5.27-18.98,1.78-8.5-.13-11.71-.13-11.71l-3.71-.88,1.21-5.1c-7.52-11.46-16.45-12.25-16.45-12.25-7.96-.87-11.15,5.48-11.15,5.48l-1.02-7.28-10.9-1.67-.98,6.76-4.62-7.47c-1.87-.52-18.93-1.77-18.93-1.77l-.41,5.36c-3.57-3.83-7.53-5.53-10.7-6.03C117.82-.08,99.38,0,99.38,0l-.06,11.14L93.31.13l-10.21.41-.97,22.9-6.46-22.43-10.21.89-8.47,20.29-1.28-9.9c-.1-.81-.26-1.62-.53-2.39-2.35-6.54-8.73-5.61-8.73-5.61l-13.37,2.23-.78,4.95c-2.87-4.55-8.19-3.16-8.19-3.16l-12.17,2.75-7.11,35.47,3.98,15.67L0,109.46s3.97,12.21,4.61,14.17c1.2-.48,17.9-3.71,17.9-3.71l3.76-22.94,9.92-1.73-.89,7.62,2.98,14.39s53.15-7.94,76.27-4.24l.28-20.41,13.58,20.45s19.35,1.47,21.09,1.65c.12-1.91.62-5.08.62-5.08,3.06,2.66,9.46,7.51,18.97,9.7,4.22.97,8.07,1.19,11.31,1.08,6.08-.22,11.96-2.6,16.07-7.08.25-.28.5-.57.75-.87,3.18-3.83,4.23-7.67,5.9-13.75.54-1.97,1.12-4.39,1.6-7.23,1.3-7.56.36-15.34-2.89-22.28ZM55.04,61.9c-.15,1.44-.29,2.86-.43,4.26-.14,1.4-.28,2.79-.41,4.18-.14,1.39-.28,2.78-.42,4.19-.14,1.4-.28,2.82-.42,4.26-.14,1.44-.29,2.91-.44,4.41-.15,1.51-.3,3.06-.46,4.65-.16,1.6-.32,3.25-.49,4.96-.17,1.71-.35,3.49-.53,5.34-1.78.2-3.26.38-4.64.55s-2.66.33-4.03.51c-1.38.18-2.86.38-4.63.64.24-1.92.45-3.64.65-5.24.2-1.61.39-3.1.57-4.56.18-1.45.35-2.86.53-4.32.18-1.45.37-2.94.57-4.55.2-1.61.41-3.33.65-5.24-1.68.24-3.19.46-4.59.68-1.41.21-2.72.42-3.99.62-1.27.21-2.51.42-3.78.63-1.27.22-2.57.45-3.97.7-1.41.25-2.91.53-4.57.85-.32,1.92-.6,3.66-.87,5.28-.27,1.61-.51,3.12-.75,4.58-.24,1.46-.48,2.89-.72,4.35-.24,1.46-.48,2.97-.75,4.58-.27,1.62-.55,3.35-.87,5.28-1.76.34-3.22.63-4.59.9-1.36.28-2.63.54-4,.83-1.36.28-2.82.6-4.57.98.35-1.88.69-3.68,1.02-5.42.32-1.74.64-3.41.94-5.03.31-1.62.6-3.19.89-4.72.28-1.53.56-3.02.84-4.48.27-1.47.55-2.91.81-4.33.27-1.43.54-2.84.8-4.25.27-1.41.53-2.82.8-4.25.27-1.42.54-2.86.81-4.32.28-1.47.56-2.96.84-4.49.29-1.52.59-3.09.89-4.71.31-1.62.62-3.3.95-5.04.32-1.73.66-3.54,1.02-5.42,1.56-.35,2.87-.63,4.09-.88,1.22-.26,2.36-.49,3.58-.74s2.53-.51,4.11-.81c-.27,1.61-.5,3.05-.72,4.4-.23,1.35-.43,2.6-.63,3.82-.2,1.22-.4,2.41-.6,3.63-.2,1.22-.4,2.47-.62,3.82-.23,1.35-.46,2.79-.73,4.4,1.63-.31,3.1-.59,4.47-.83,1.37-.25,2.64-.47,3.88-.68,1.24-.22,2.45-.42,3.69-.62,1.24-.2,2.51-.4,3.89-.61,1.37-.21,2.84-.43,4.48-.66.2-1.6.38-3.03.54-4.37.17-1.34.32-2.58.47-3.79.15-1.21.3-2.39.45-3.61.15-1.21.31-2.45.47-3.79.17-1.34.35-2.77.54-4.37,1.59-.22,2.91-.4,4.14-.56,1.23-.17,2.38-.31,3.61-.46,1.24-.16,2.56-.31,4.15-.49-.19,1.85-.36,3.63-.53,5.34-.17,1.71-.34,3.36-.49,4.95-.16,1.6-.32,3.15-.47,4.65-.15,1.51-.29,2.98-.43,4.42ZM96.33,44.09c-.02,1.23-.04,2.37-.06,3.6-.02,1.23-.04,2.55-.07,4.13-1.93.03-3.68.08-5.3.12-1.63.05-3.14.11-4.61.17-1.47.06-2.9.13-4.38.2-1.47.08-2.97.16-4.6.26-1.62.1-3.36.22-5.3.37-.1,1.58-.18,2.77-.26,3.95-.08,1.19-.16,2.38-.26,3.96,1.89-.14,3.55-.25,5.09-.35,1.53-.1,2.95-.18,4.37-.25,1.42-.08,2.84-.15,4.38-.21,1.54-.07,3.2-.13,5.1-.19-.05,1.58-.08,2.9-.12,4.13-.03,1.23-.06,2.37-.1,3.6-.03,1.23-.07,2.55-.11,4.13-1.94.06-3.64.13-5.22.19-1.57.07-3.03.14-4.48.22-1.46.07-2.91.16-4.49.26-1.57.1-3.27.21-5.2.35-.11,1.59-.2,2.91-.28,4.14-.08,1.23-.15,2.38-.24,3.61-.08,1.23-.16,2.55-.27,4.13,1.72-.13,3.29-.23,4.77-.33,1.48-.09,2.86-.17,4.2-.25,1.34-.07,2.62-.14,3.91-.2s2.58-.11,3.92-.16c1.34-.05,2.72-.1,4.2-.14,1.48-.04,3.06-.08,4.78-.11-.03,1.58-.05,2.9-.07,4.13-.02,1.23-.04,2.37-.05,3.6-.02,1.22-.05,2.54-.07,4.12-1.99.04-3.85.08-5.62.14-1.77.05-3.45.11-5.07.18-1.61.06-3.16.13-4.68.21-1.52.08-3.01.16-4.5.25s-2.98.19-4.5.3c-1.52.1-3.07.22-4.68.35-1.61.13-3.29.27-5.05.43-1.77.16-3.63.34-5.61.55.17-1.85.33-3.63.49-5.34.15-1.71.3-3.36.45-4.95.15-1.6.29-3.14.42-4.64.14-1.51.27-2.98.41-4.42.13-1.44.26-2.85.38-4.25.13-1.41.26-2.8.38-4.18.13-1.39.26-2.78.38-4.18.13-1.41.26-2.82.39-4.26s.27-2.91.4-4.41c.14-1.51.28-3.05.43-4.65.14-1.59.29-3.24.45-4.95.15-1.71.32-3.48.48-5.34,1.78-.18,3.44-.34,5.02-.49,1.58-.14,3.08-.27,4.52-.38,1.44-.12,2.83-.22,4.19-.32,1.36-.09,2.69-.18,4.02-.26,1.33-.08,2.67-.16,4.03-.23,1.36-.07,2.75-.13,4.19-.19,1.45-.06,2.95-.11,4.53-.16,1.59-.05,3.25-.09,5.03-.12-.02,1.58-.04,2.9-.06,4.13ZM142.36,96.78c-1.25-.1-2.41-.19-3.56-.28-1.16-.09-2.31-.17-3.57-.25-1.25-.09-2.59-.17-4.14-.26-1.01-1.49-1.93-2.85-2.79-4.13-.86-1.28-1.66-2.47-2.42-3.62-.77-1.15-1.51-2.26-2.24-3.36-.73-1.11-1.45-2.21-2.2-3.35-.75-1.14-1.52-2.33-2.34-3.59s-1.69-2.6-2.62-4.05c-1.78-.05-2.67-.07-4.45-.11.03,1.72.05,3.27.08,4.71.02,1.45.04,2.79.06,4.1.02,1.3.04,2.57.07,3.88.02,1.31.04,2.65.06,4.09.02,1.45.05,2.99.08,4.71-1.79-.03-3.27-.05-4.66-.06-1.39-.01-2.67-.01-4.06-.01s-2.87,0-4.66.02c.02-1.84.04-3.61.05-5.31.02-1.7.03-3.34.05-4.93.01-1.59.03-3.12.04-4.62.02-1.5.03-2.96.04-4.39.02-1.44.03-2.85.04-4.24.01-1.4.03-2.78.04-4.16s.03-2.77.04-4.16c.01-1.4.03-2.81.04-4.24.01-1.43.03-2.89.04-4.39s.03-3.04.04-4.62c.02-1.59.03-3.23.05-4.93.01-1.7.03-3.47.05-5.32,1.82-.01,3.45-.02,4.98-.02s2.95.01,4.33.03,2.73.04,4.11.07c1.39.03,2.8.07,4.33.12,1.53.04,3.17.11,4.98.19,1.53.06,2.99.33,4.4.78,1.4.46,2.74,1.12,4.02,1.96,1.29.84,2.46,1.82,3.51,2.91,1.05,1.1,1.99,2.32,2.82,3.67.82,1.34,1.48,2.74,1.95,4.19.47,1.44.77,2.94.88,4.48.09,1.19.07,2.33-.06,3.42-.12,1.09-.36,2.13-.7,3.12-.35.99-.79,1.91-1.33,2.77-.53.86-1.17,1.65-1.9,2.38-.73.73-1.54,1.38-2.43,1.95-.89.57-1.85,1.05-2.89,1.47,1.02,1.56,1.97,3,2.86,4.35.9,1.36,1.74,2.62,2.56,3.85.82,1.23,1.61,2.41,2.41,3.6.8,1.19,1.6,2.38,2.44,3.61.84,1.24,1.71,2.52,2.65,3.89.94,1.38,1.94,2.84,3.05,4.44-1.54-.14-2.88-.25-4.13-.36ZM203.04,87.03c-.1,1.21-.3,2.38-.6,3.49-.44,1.67-1.07,3.2-1.89,4.58-.81,1.39-1.81,2.64-2.99,3.74-.79.74-1.65,1.39-2.58,1.98-.93.58-1.92,1.09-2.99,1.53-1.06.43-2.19.79-3.39,1.09-1.19.28-2.44.49-3.73.6-1.29.12-2.63.14-4.01.09-1.39-.06-2.82-.21-4.3-.44-1.46-.23-2.91-.53-4.34-.92-1.43-.38-2.85-.84-4.24-1.37-1.39-.54-2.77-1.15-4.12-1.84-1.34-.69-2.63-1.43-3.88-2.23s-2.45-1.65-3.61-2.56c-1.15-.91-2.26-1.88-3.31-2.9-1.06-1.03-2.05-2.1-2.96-3.2-.92-1.1-1.76-2.24-2.54-3.42-.78-1.18-1.48-2.4-2.12-3.66s-1.19-2.54-1.65-3.84c-.45-1.3-.82-2.62-1.1-3.96-.28-1.34-.47-2.7-.58-4.09-.11-1.37-.12-2.72-.05-4.03.08-1.3.24-2.58.49-3.81.24-1.24.58-2.44,1-3.61.41-1.16.89-2.27,1.44-3.32s1.16-2.05,1.84-2.99c.67-.94,1.42-1.83,2.22-2.65.8-.83,1.65-1.58,2.55-2.26.9-.68,1.84-1.28,2.84-1.81.99-.52,2.03-.98,3.12-1.35,1.1-.37,2.22-.65,3.39-.83,1.16-.19,2.35-.27,3.58-.26,1.23,0,2.49.11,3.79.31,1.3.21,2.6.5,3.87.89,1.28.38,2.54.85,3.79,1.41,1.25.56,2.49,1.21,3.72,1.95,1.23.74,2.43,1.54,3.59,2.4,1.17.87,2.3,1.8,3.41,2.79,1.1.99,2.18,2.05,3.23,3.16,1.04,1.11,2.03,2.27,2.97,3.47.94,1.19,1.84,2.42,2.68,3.69.84,1.28,1.63,2.58,2.37,3.93.74,1.34,1.4,2.7,1.99,4.07.58,1.37,1.09,2.74,1.52,4.13.43,1.39.78,2.78,1.05,4.19.27,1.41.46,2.77.55,4.08.08,1.31.08,2.57-.02,3.78ZM124.19,51.3c-.92-.59-1.92-.9-3.01-.95-1.91-.07-3.34-.12-4.76-.16-1.43-.04-2.86-.08-4.77-.11.02,1.58.05,2.89.06,4.12.02,1.23.04,2.37.06,3.6.02,1.23.04,2.55.07,4.13,1.95.03,3.42.07,4.88.11,1.47.05,2.93.09,4.89.17,1.11.05,2.12-.17,3.01-.67s1.6-1.18,2.11-2.04c.51-.87.73-1.85.68-2.93-.05-1.08-.37-2.09-.96-3.01-.58-.92-1.34-1.68-2.26-2.26ZM126.45,53.56c-.58-.92-1.34-1.68-2.26-2.26-.92-.59-1.92-.9-3.01-.95-1.91-.07-3.34-.12-4.76-.16-1.43-.04-2.86-.08-4.77-.11.02,1.58.05,2.89.06,4.12.02,1.23.04,2.37.06,3.6.02,1.23.04,2.55.07,4.13,1.95.03,3.42.07,4.88.11,1.47.05,2.93.09,4.89.17,1.11.05,2.12-.17,3.01-.67s1.6-1.18,2.11-2.04c.51-.87.73-1.85.68-2.93-.05-1.08-.37-2.09-.96-3.01ZM126.45,53.56c-.58-.92-1.34-1.68-2.26-2.26-.92-.59-1.92-.9-3.01-.95-1.91-.07-3.34-.12-4.76-.16-1.43-.04-2.86-.08-4.77-.11.02,1.58.05,2.89.06,4.12.02,1.23.04,2.37.06,3.6.02,1.23.04,2.55.07,4.13,1.95.03,3.42.07,4.88.11,1.47.05,2.93.09,4.89.17,1.11.05,2.12-.17,3.01-.67s1.6-1.18,2.11-2.04c.51-.87.73-1.85.68-2.93-.05-1.08-.37-2.09-.96-3.01Z"/>
      </g>
      <g>
        <g>
          <g>
            <path class="cls-2" d="M7.96,43.32c.35-1.73.67-3.33.98-4.84.31-1.51.6-2.94.87-4.31.28-1.37.55-2.69.81-4s.52-2.59.79-3.89c.26-1.3.53-2.62.81-4s.57-2.8.87-4.31c.31-1.51.63-3.12.98-4.84,1.35-.33,2.48-.59,3.54-.83,1.06-.24,2.04-.46,3.09-.7s2.19-.48,3.55-.77c1.48-.31,2.75-.25,3.83.19,1.08.44,1.87,1.21,2.38,2.32s.62,2.49.35,4.16c-.1.63-.28,1.3-.54,2.02-.26.72-.62,1.41-1.09,2.08-.47.67-1.08,1.24-1.83,1.72.85.05,1.48.35,1.9.87.42.53.69,1.18.82,1.95.13.77.17,1.56.11,2.38-.05.82-.13,1.56-.24,2.23-.24,1.51-.85,2.95-1.83,4.33-.49.69-1.04,1.33-1.64,1.92-.6.59-1.27,1.14-1.99,1.64-.72.5-1.46.91-2.22,1.24-.76.33-1.54.58-2.33.75-1.6.33-2.94.62-4.18.9-1.24.27-2.4.53-3.64.82-1.24.28-2.57.59-4.17.98ZM17.69,23.07c1.53-.34,2.29-.51,3.83-.84.79-.17,1.52-.6,2.19-1.29.67-.69,1.08-1.47,1.23-2.34.16-.89,0-1.51-.48-1.86-.48-.36-1.1-.45-1.88-.28-1.51.32-2.27.49-3.78.83-.22,1.16-.39,2.03-.55,2.89s-.33,1.74-.55,2.89ZM15.15,36.43c1.02-.23,1.79-.4,2.56-.56.77-.17,1.54-.33,2.56-.55.7-.15,1.38-.46,2.01-.93.64-.47,1.18-1.04,1.63-1.73.45-.68.74-1.42.88-2.2.11-.66.05-1.25-.19-1.77-.24-.52-.61-.91-1.11-1.17-.5-.26-1.1-.31-1.79-.16-1.01.21-1.76.37-2.52.54-.75.16-1.51.33-2.51.55-.3,1.6-.53,2.79-.76,3.99-.23,1.2-.46,2.39-.76,3.99Z"/>
            <g>
              <path class="cls-2" d="M30.6,38.55c.27-1.71.52-3.3.75-4.79.23-1.5.46-2.91.67-4.27s.42-2.67.62-3.96c.2-1.29.4-2.56.6-3.85s.41-2.6.62-3.96.43-2.77.67-4.27c.23-1.5.48-3.09.75-4.79,1.47-.27,2.7-.48,3.84-.68,1.14-.2,2.21-.37,3.35-.56,1.15-.19,2.37-.38,3.85-.6,1.49-.23,2.78,0,3.89.64,1.11.65,1.94,1.62,2.49,2.91.55,1.28.74,2.75.55,4.41-.14,1.27-.48,2.48-1,3.63-.53,1.15-1.21,2.19-2.06,3.14-.84.94-1.8,1.74-2.88,2.39.69,1.49,1.28,2.74,1.83,3.9.55,1.16,1.07,2.24,1.63,3.41.56,1.17,1.17,2.41,1.92,3.92-1.44.18-2.52.32-3.59.47-1.08.15-2.16.29-3.59.5-.68-1.42-1.24-2.59-1.76-3.69-.52-1.1-.99-2.12-1.5-3.22-.51-1.1-1.05-2.27-1.68-3.68-.84.13-1.26.2-2.1.34-.22,1.55-.41,2.83-.58,4.04s-.33,2.32-.51,3.52c-.17,1.2-.36,2.49-.58,4.04-1.24.21-2.17.36-3.1.53-.93.16-1.86.32-3.1.55ZM39.38,19.5c1.86-.31,2.8-.46,4.66-.74.53-.08,1.04-.3,1.51-.66.48-.36.88-.79,1.2-1.31.33-.52.53-1.07.6-1.65.07-.58,0-1.09-.19-1.54-.2-.44-.5-.78-.89-1-.4-.23-.85-.3-1.38-.22-1.84.28-2.76.43-4.59.73-.18,1.28-.32,2.24-.46,3.2-.14.96-.28,1.92-.46,3.2Z"/>
              <g>
                <path class="cls-2" d="M67.2,4.24c1.32-.13,2.31-.22,3.3-.3.99-.09,1.98-.17,3.3-.27.45,1.64.87,3.17,1.28,4.62.41,1.44.79,2.81,1.17,4.12.38,1.31.74,2.57,1.11,3.82.37,1.24.73,2.47,1.1,3.72.37,1.25.75,2.51,1.16,3.82s.82,2.68,1.27,4.13c.45,1.45.94,2.99,1.46,4.64-1.33.07-2.32.13-3.32.19-1,.06-1.99.12-3.32.21-.55-1.81-.83-2.72-1.37-4.52-1.54.11-2.82.21-4.01.31s-2.3.2-3.5.3c-1.19.11-2.47.23-4.01.39-.41.96-.72,1.69-1.04,2.41-.31.72-.63,1.45-1.05,2.41-1.32.14-2.32.25-3.31.36-.99.11-1.98.23-3.31.39.78-1.77,1.51-3.41,2.19-4.96s1.31-3.01,1.92-4.41c.61-1.4,1.19-2.75,1.75-4.08.57-1.33,1.12-2.64,1.68-3.96.56-1.33,1.12-2.67,1.71-4.06s1.18-2.84,1.82-4.38c.63-1.54,1.3-3.16,2.01-4.9ZM65.63,22.84c1.38-.13,2.41-.22,3.44-.31,1.03-.09,2.06-.18,3.44-.28-.56-1.91-.97-3.33-1.37-4.76-.41-1.43-.81-2.85-1.33-4.76-.55,1.35-1.01,2.47-1.44,3.52-.43,1.05-.83,2.02-1.27,3.07-.44,1.05-.9,2.18-1.47,3.53Z"/>
                <g>
                  <path class="cls-2" d="M84.25,32.43c.08-1.97.16-3.77.23-5.46.07-1.69.14-3.28.2-4.81.06-1.53.13-3.01.19-4.48.06-1.48.13-2.95.19-4.48.06-1.53.13-3.11.2-4.81.07-1.69.15-3.5.23-5.46,1.27-.06,2.22-.1,3.17-.14.95-.04,1.9-.07,3.17-.11.76,1.42,1.45,2.7,2.11,3.9.65,1.2,1.26,2.31,1.86,3.4s1.19,2.14,1.8,3.23c.61,1.09,1.24,2.21,1.92,3.41.68,1.21,1.42,2.5,2.25,3.94,0-1.81.02-3.39.02-4.86,0-1.47.01-2.82.02-4.18,0-1.36.01-2.71.02-4.18s.01-3.05.02-4.86c1.17,0,2.06,0,2.94,0s1.76,0,2.94.02c.02,1.97.03,3.77.05,5.46.02,1.69.03,3.28.04,4.8.01,1.53.03,3,.04,4.48.01,1.47.03,2.95.04,4.48.01,1.53.03,3.11.04,4.8s.03,3.49.05,5.46c-1.35-.01-2.37-.02-3.39-.02-1.02,0-2.03,0-3.39,0-.85-1.44-1.6-2.73-2.3-3.94s-1.34-2.32-1.97-3.41c-.62-1.09-1.23-2.15-1.84-3.23-.61-1.08-1.24-2.2-1.91-3.39-.67-1.2-1.38-2.48-2.16-3.89-.05,1.81-.1,3.39-.14,4.86-.04,1.47-.08,2.82-.12,4.18s-.08,2.71-.12,4.18c-.04,1.47-.09,3.05-.14,4.86-1.25.04-2.19.08-3.13.11-.94.04-1.88.08-3.13.14Z"/>
                  <g>
                    <path class="cls-2" d="M110.85,32.02c-.03-1.97-.06-3.77-.08-5.46-.03-1.69-.05-3.28-.07-4.8s-.05-3-.07-4.48c-.02-1.47-.04-2.95-.07-4.48-.02-1.53-.05-3.11-.07-4.8-.03-1.69-.05-3.49-.08-5.46,1.82.03,3.18.06,4.54.1,1.36.04,2.72.08,4.54.16.95.04,1.86.17,2.76.41s1.76.57,2.61.99c.85.43,1.65.93,2.41,1.5.76.57,1.48,1.22,2.15,1.94.67.72,1.29,1.49,1.83,2.31.55.82,1.03,1.69,1.45,2.6.42.92.75,1.86,1,2.83.25.97.4,1.96.47,2.98.07,1.02.04,2-.08,2.94-.12.94-.34,1.84-.65,2.71s-.7,1.67-1.17,2.42c-.47.75-1.02,1.44-1.64,2.07-.63.64-1.31,1.19-2.05,1.68-.74.48-1.55.89-2.41,1.23-.86.34-1.76.58-2.7.72s-1.91.2-2.92.16c-1.94-.08-3.39-.13-4.85-.17-1.45-.04-2.91-.08-4.85-.11ZM116.94,25.86c1.35.04,2.03.07,3.38.12,1.11.05,2.16-.13,3.12-.51.97-.39,1.82-.95,2.55-1.68.73-.73,1.28-1.59,1.65-2.59.37-.99.53-2.07.46-3.24-.06-1.17-.33-2.27-.81-3.31-.48-1.04-1.1-1.97-1.88-2.79-.78-.82-1.65-1.47-2.62-1.95s-2-.74-3.08-.79c-1.3-.05-1.95-.08-3.26-.12.05,1.69.09,3.16.13,4.53.04,1.37.08,2.63.11,3.9.04,1.26.07,2.53.11,3.9.04,1.37.08,2.84.13,4.53Z"/>
                    <g>
                      <path class="cls-2" d="M136.9,33.29c-.14-1.97-.27-3.78-.39-5.47-.12-1.7-.23-3.28-.34-4.82-.11-1.53-.21-3.01-.32-4.49-.11-1.48-.21-2.96-.32-4.49-.11-1.53-.22-3.12-.34-4.82-.12-1.7-.25-3.5-.39-5.47,1.17.09,2.05.17,2.93.25.88.08,1.76.16,2.93.27.17,1.97.32,3.78.46,5.48.14,1.7.28,3.29.41,4.82.13,1.53.25,3.01.38,4.49s.25,2.96.38,4.49c.13,1.53.26,3.12.41,4.82s.3,3.51.46,5.48c-1.25-.12-2.19-.21-3.13-.29s-1.88-.16-3.13-.26Z"/>
                      <g>
                        <path class="cls-2" d="M145.9,34.12c-.18-1.97-.34-3.78-.5-5.48-.15-1.7-.3-3.29-.44-4.83-.14-1.54-.27-3.02-.41-4.5-.13-1.48-.27-2.96-.41-4.5-.14-1.54-.28-3.13-.44-4.83-.15-1.7-.32-3.51-.5-5.48,1.26.13,2.21.23,3.16.34.95.11,1.89.21,3.16.36.95,1.55,1.81,2.95,2.62,4.25.81,1.31,1.57,2.52,2.31,3.71s1.47,2.34,2.22,3.54,1.53,2.42,2.37,3.74c.84,1.32,1.75,2.74,2.76,4.32-.23-1.82-.44-3.42-.62-4.9-.19-1.48-.36-2.85-.54-4.22-.17-1.37-.35-2.74-.54-4.22-.19-1.48-.39-3.08-.62-4.9,1.17.17,2.04.3,2.91.44.87.13,1.75.27,2.91.46.24,1.7.46,3.29.67,4.78s.41,2.9.6,4.26.37,2.66.55,3.95.36,2.56.54,3.84.36,2.59.55,3.95c.19,1.36.39,2.76.6,4.26.21,1.5.43,3.08.67,4.78-1.34-.22-2.35-.37-3.36-.53-1.01-.15-2.01-.31-3.36-.5-1.03-1.58-1.96-3-2.81-4.32-.86-1.32-1.65-2.55-2.41-3.74s-1.51-2.35-2.26-3.54-1.53-2.41-2.36-3.71c-.83-1.31-1.71-2.71-2.68-4.26.19,1.82.35,3.41.51,4.89s.29,2.84.44,4.2c.14,1.36.28,2.73.44,4.2.15,1.48.32,3.07.51,4.89-1.25-.15-2.18-.25-3.12-.36-.94-.1-1.87-.2-3.12-.33Z"/>
                        <path class="cls-2" d="M185.79,40.74c-1.01-.21-2-.5-2.97-.89s-1.92-.86-2.85-1.43c-.93-.57-1.81-1.2-2.65-1.9-.84-.7-1.63-1.46-2.37-2.29-.74-.83-1.43-1.7-2.04-2.61-.62-.91-1.17-1.87-1.66-2.86-.49-1-.89-2.01-1.21-3.04-.32-1.03-.55-2.07-.71-3.13-.17-1.14-.23-2.22-.19-3.23.04-1.01.18-1.95.42-2.82.48-1.75,1.26-3.2,2.33-4.34,1.07-1.15,2.34-1.94,3.83-2.38,1.48-.44,3.07-.48,4.78-.14.94.19,1.89.51,2.86.94.97.44,1.95,1,2.96,1.69,1,.69,1.99,1.52,2.97,2.49.98.98,1.94,2.09,2.89,3.36-.92.38-1.61.66-2.31.95-.7.29-1.39.58-2.33.97-.98-1.16-1.98-2.08-3.01-2.74-1.03-.66-2.02-1.09-2.99-1.29-.98-.2-1.88-.17-2.72.1-.84.26-1.55.73-2.14,1.41-.59.68-1.01,1.54-1.26,2.58-.25,1.05-.27,2.25-.06,3.62.2,1.25.59,2.46,1.17,3.64.58,1.17,1.31,2.24,2.17,3.19.86.96,1.81,1.76,2.86,2.41,1.04.65,2.11,1.09,3.21,1.31.62.13,1.23.16,1.81.11.58-.05,1.13-.19,1.65-.43.52-.23.98-.57,1.39-1.02.41-.45.75-1,1.02-1.67-1.51-.33-2.27-.5-3.78-.82-.2-1.12-.35-1.95-.5-2.79-.15-.84-.3-1.67-.5-2.79,1.44.3,2.63.56,3.75.81s2.15.48,3.26.74c1.11.26,2.31.53,3.74.88.28,1.14.46,2.23.53,3.26.07,1.03.04,2-.1,2.92-.14.92-.36,1.75-.68,2.52-.32.76-.72,1.45-1.22,2.06-.99,1.23-2.28,2.07-3.87,2.55-.8.24-1.65.37-2.56.38-.91.01-1.88-.08-2.9-.29Z"/>
                      </g>
                    </g>
                  </g>
                </g>
              </g>
            </g>
          </g>
          <g>
            <path class="cls-1" d="M56.96,42.54c-.19,1.85-.36,3.63-.53,5.34-.17,1.71-.34,3.36-.49,4.95-.16,1.6-.32,3.15-.47,4.65-.15,1.51-.29,2.98-.43,4.42-.15,1.44-.29,2.86-.43,4.26-.14,1.4-.28,2.79-.41,4.18-.14,1.39-.28,2.78-.42,4.19-.14,1.4-.28,2.82-.42,4.26-.14,1.44-.29,2.91-.44,4.41-.15,1.51-.3,3.06-.46,4.65-.16,1.6-.32,3.25-.49,4.96-.17,1.71-.35,3.49-.53,5.34-1.78.2-3.26.38-4.64.55s-2.66.33-4.03.51c-1.38.18-2.86.38-4.63.64.24-1.92.45-3.64.65-5.24.2-1.61.39-3.1.57-4.56.18-1.45.35-2.86.53-4.32.18-1.45.37-2.94.57-4.55.2-1.61.41-3.33.65-5.24-1.68.24-3.19.46-4.59.68-1.41.21-2.72.42-3.99.62-1.27.21-2.51.42-3.78.63-1.27.22-2.57.45-3.97.7-1.41.25-2.91.53-4.57.85-.32,1.92-.6,3.66-.87,5.28-.27,1.61-.51,3.12-.75,4.58-.24,1.46-.48,2.89-.72,4.35-.24,1.46-.48,2.97-.75,4.58-.27,1.62-.55,3.35-.87,5.28-1.76.34-3.22.63-4.59.9-1.36.28-2.63.54-4,.83-1.36.28-2.82.6-4.57.98.35-1.88.69-3.68,1.02-5.42.32-1.74.64-3.41.94-5.03.31-1.62.6-3.19.89-4.72.28-1.53.56-3.02.84-4.48.27-1.47.55-2.91.81-4.33.27-1.43.54-2.84.8-4.25.27-1.41.53-2.82.8-4.25.27-1.42.54-2.86.81-4.32.28-1.47.56-2.96.84-4.49.29-1.52.59-3.09.89-4.71.31-1.62.62-3.3.95-5.04.32-1.73.66-3.54,1.02-5.42,1.56-.35,2.87-.63,4.09-.88,1.22-.26,2.36-.49,3.58-.74s2.53-.51,4.11-.81c-.27,1.61-.5,3.05-.72,4.4-.23,1.35-.43,2.6-.63,3.82-.2,1.22-.4,2.41-.6,3.63-.2,1.22-.4,2.47-.62,3.82-.23,1.35-.46,2.79-.73,4.4,1.63-.31,3.1-.59,4.47-.83,1.37-.25,2.64-.47,3.88-.68,1.24-.22,2.45-.42,3.69-.62,1.24-.2,2.51-.4,3.89-.61,1.37-.21,2.84-.43,4.48-.66.2-1.6.38-3.03.54-4.37.17-1.34.32-2.58.47-3.79.15-1.21.3-2.39.45-3.61.15-1.21.31-2.45.47-3.79.17-1.34.35-2.77.54-4.37,1.59-.22,2.91-.4,4.14-.56,1.23-.17,2.38-.31,3.61-.46,1.24-.16,2.56-.31,4.15-.49Z"/>
            <path class="cls-4" d="M96.39,39.96c-.02,1.58-.04,2.9-.06,4.13-.02,1.23-.04,2.37-.06,3.6-.02,1.23-.04,2.55-.07,4.13-1.93.03-3.68.08-5.3.12-1.63.05-3.14.11-4.61.17-1.47.06-2.9.13-4.38.2-1.47.08-2.97.16-4.6.26-1.62.1-3.36.22-5.3.37-.1,1.58-.18,2.77-.26,3.95-.08,1.19-.16,2.38-.26,3.96,1.89-.14,3.55-.25,5.09-.35,1.53-.1,2.95-.18,4.37-.25,1.42-.08,2.84-.15,4.38-.21,1.54-.07,3.2-.13,5.1-.19-.05,1.58-.08,2.9-.12,4.13-.03,1.23-.06,2.37-.1,3.6-.03,1.23-.07,2.55-.11,4.13-1.94.06-3.64.13-5.22.19-1.57.07-3.03.14-4.48.22-1.46.07-2.91.16-4.49.26-1.57.1-3.27.21-5.2.35-.11,1.59-.2,2.91-.28,4.14-.08,1.23-.15,2.38-.24,3.61-.08,1.23-.16,2.55-.27,4.13,1.72-.13,3.29-.23,4.77-.33,1.48-.09,2.86-.17,4.2-.25,1.34-.07,2.62-.14,3.91-.2s2.58-.11,3.92-.16c1.34-.05,2.72-.1,4.2-.14,1.48-.04,3.06-.08,4.78-.11-.03,1.58-.05,2.9-.07,4.13-.02,1.23-.04,2.37-.05,3.6-.02,1.22-.05,2.54-.07,4.12-1.99.04-3.85.08-5.62.14-1.77.05-3.45.11-5.07.18-1.61.06-3.16.13-4.68.21-1.52.08-3.01.16-4.5.25s-2.98.19-4.5.3c-1.52.1-3.07.22-4.68.35-1.61.13-3.29.27-5.05.43-1.77.16-3.63.34-5.61.55.17-1.85.33-3.63.49-5.34.15-1.71.3-3.36.45-4.95.15-1.6.29-3.14.42-4.64.14-1.51.27-2.98.41-4.42.13-1.44.26-2.85.38-4.25.13-1.41.26-2.8.38-4.18.13-1.39.26-2.78.38-4.18.13-1.41.26-2.82.39-4.26s.27-2.91.4-4.41c.14-1.51.28-3.05.43-4.65.14-1.59.29-3.24.45-4.95.15-1.71.32-3.48.48-5.34,1.78-.18,3.44-.34,5.02-.49,1.58-.14,3.08-.27,4.52-.38,1.44-.12,2.83-.22,4.19-.32,1.36-.09,2.69-.18,4.02-.26,1.33-.08,2.67-.16,4.03-.23,1.36-.07,2.75-.13,4.19-.19,1.45-.06,2.95-.11,4.53-.16,1.59-.05,3.25-.09,5.03-.12Z"/>
            <path class="cls-3" d="M143.44,92.7c-.94-1.37-1.81-2.65-2.65-3.89-.84-1.23-1.64-2.42-2.44-3.61-.8-1.19-1.59-2.37-2.41-3.6-.82-1.23-1.66-2.49-2.56-3.85-.89-1.35-1.84-2.79-2.86-4.35,1.04-.42,2-.9,2.89-1.47.89-.57,1.7-1.22,2.43-1.95.73-.73,1.37-1.52,1.9-2.38.54-.86.98-1.78,1.33-2.77.34-.99.58-2.03.7-3.12.13-1.09.15-2.23.06-3.42-.11-1.54-.41-3.04-.88-4.48-.47-1.45-1.13-2.85-1.95-4.19-.83-1.35-1.77-2.57-2.82-3.67-1.05-1.09-2.22-2.07-3.51-2.91-1.28-.84-2.62-1.5-4.02-1.96-1.41-.45-2.87-.72-4.4-.78-1.81-.08-3.45-.15-4.98-.19-1.53-.05-2.94-.09-4.33-.12-1.38-.03-2.73-.05-4.11-.07s-2.8-.03-4.33-.03-3.16.01-4.98.02c-.02,1.85-.04,3.62-.05,5.32-.02,1.7-.03,3.34-.05,4.93-.01,1.58-.03,3.12-.04,4.62s-.03,2.96-.04,4.39c0,1.43-.03,2.84-.04,4.24-.01,1.39-.03,2.78-.04,4.16s-.03,2.76-.04,4.16c0,1.39-.02,2.8-.04,4.24-.01,1.43-.02,2.89-.04,4.39-.01,1.5-.03,3.03-.04,4.62-.02,1.59-.03,3.23-.05,4.93-.01,1.7-.03,3.47-.05,5.31,1.79-.02,3.27-.02,4.66-.02s2.67,0,4.06.01c1.39.01,2.87.03,4.66.06-.03-1.72-.06-3.26-.08-4.71-.02-1.44-.04-2.78-.06-4.09-.03-1.31-.05-2.58-.07-3.88-.02-1.31-.04-2.65-.06-4.1-.03-1.44-.05-2.99-.08-4.71,1.78.04,2.67.06,4.45.11.93,1.45,1.8,2.79,2.62,4.05s1.59,2.45,2.34,3.59c.75,1.14,1.47,2.24,2.2,3.35.73,1.1,1.47,2.21,2.24,3.36.76,1.15,1.56,2.34,2.42,3.62.86,1.28,1.78,2.64,2.79,4.13,1.55.09,2.89.17,4.14.26,1.26.08,2.41.16,3.57.25,1.15.09,2.31.18,3.56.28,1.25.11,2.59.22,4.13.36-1.11-1.6-2.11-3.06-3.05-4.44ZM126.73,59.5c-.51.86-1.22,1.54-2.11,2.04s-1.9.72-3.01.67c-1.96-.08-3.42-.12-4.89-.17-1.46-.04-2.93-.08-4.88-.11-.03-1.58-.05-2.9-.07-4.13-.02-1.23-.04-2.37-.06-3.6-.01-1.23-.04-2.54-.06-4.12,1.91.03,3.34.07,4.77.11,1.42.04,2.85.09,4.76.16,1.09.05,2.09.36,3.01.95.92.58,1.68,1.34,2.26,2.26.59.92.91,1.93.96,3.01.05,1.08-.17,2.06-.68,2.93Z"/>
          </g>
        </g>
        <path class="cls-2" d="M203.06,83.25c-.09-1.31-.28-2.67-.55-4.08-.27-1.41-.62-2.8-1.05-4.19-.43-1.39-.94-2.76-1.52-4.13-.59-1.37-1.25-2.73-1.99-4.07-.74-1.35-1.53-2.65-2.37-3.93-.84-1.27-1.74-2.5-2.68-3.69-.94-1.2-1.93-2.36-2.97-3.47-1.05-1.11-2.13-2.17-3.23-3.16-1.11-.99-2.24-1.92-3.41-2.79-1.16-.86-2.36-1.66-3.59-2.4-1.23-.74-2.47-1.39-3.72-1.95-1.25-.56-2.51-1.03-3.79-1.41-1.27-.39-2.57-.68-3.87-.89-1.3-.2-2.56-.31-3.79-.31-1.23-.01-2.42.07-3.58.26-1.17.18-2.29.46-3.39.83-1.09.37-2.13.83-3.12,1.35-1,.53-1.94,1.13-2.84,1.81-.9.68-1.75,1.43-2.55,2.26-.8.82-1.55,1.71-2.22,2.65-.68.94-1.29,1.94-1.84,2.99s-1.03,2.16-1.44,3.32c-.42,1.17-.76,2.37-1,3.61-.25,1.23-.41,2.51-.49,3.81-.07,1.31-.06,2.66.05,4.03.11,1.39.3,2.75.58,4.09.28,1.34.65,2.66,1.1,3.96.46,1.3,1.01,2.58,1.65,3.84s1.34,2.48,2.12,3.66c.78,1.18,1.62,2.32,2.54,3.42.91,1.1,1.9,2.17,2.96,3.2,1.05,1.02,2.16,1.99,3.31,2.9,1.16.91,2.36,1.76,3.61,2.56s2.54,1.54,3.88,2.23c1.35.69,2.73,1.3,4.12,1.84,1.39.53,2.81.99,4.24,1.37,1.43.39,2.88.69,4.34.92,1.48.23,2.91.38,4.3.44,1.38.05,2.72.03,4.01-.09,1.29-.11,2.54-.32,3.73-.6,1.2-.3,2.33-.66,3.39-1.09,1.07-.44,2.06-.95,2.99-1.53.93-.59,1.79-1.24,2.58-1.98,1.18-1.1,2.18-2.35,2.99-3.74.82-1.38,1.45-2.91,1.89-4.58.3-1.11.5-2.28.6-3.49.1-1.21.1-2.47.02-3.78ZM186.49,67.92c1.35.26,2.62,1.55,2.85,2.87.22,1.31-.7,2.16-2.06,1.9-1.36-.26-2.64-1.54-2.85-2.85-.21-1.32.71-2.18,2.06-1.92ZM194.13,88.33c-.92.87-2.37,1.24-4.11.9-.98-.19-1.93-.58-2.81-1.11-.88-.53-1.68-1.21-2.35-1.97-.75-.87-1.76-1.59-2.79-1.84-.16-.04-.33-.08-.48-.1-1.54-.27-2.84.07-3.71.85-1.36,1.21-2.39,2.12-3.43,3.03-1.04.91-2.08,1.82-3.49,3.05-.02.01-.03.04-.07.06-1.01.86-2.45,1.14-3.95.89-1.49-.24-3.04-1.01-4.25-2.25-1.14-1.16-1.74-2.54-1.82-3.84-.08-1.29.36-2.51,1.31-3.35,1.4-1.25,2.43-2.18,3.46-3.1,1.03-.93,2.06-1.85,3.41-3.07.87-.79,1.32-2,1.13-3.43-.19-1.44-.98-2.84-2.08-3.92-1.1-1.08-2.53-1.86-4.02-2.07-.16-.02-.33-.03-.47-.04-.98-.06-1.82.36-2.36,1.03-.94,1.17-2.55,1.8-4.45,1.57-1.14-.14-2.24-.56-3.19-1.18-.96-.63-1.78-1.45-2.37-2.39-.59-.93-.96-1.99-1.01-3.07-.06-1.44.47-2.69,1.39-3.56.92-.86,2.23-1.33,3.72-1.22.98.08,1.94.4,2.81.88.87.49,1.66,1.15,2.3,1.92.7.83,1.65,1.47,2.64,1.69.16.03.31.06.47.08,1.48.21,2.74-.19,3.6-.98,1.32-1.25,2.3-2.18,3.27-3.11.98-.92,1.94-1.85,3.22-3.08.88-.84,2.14-1.12,3.48-.89,1.34.24,2.75.98,3.93,2.19,1.18,1.2,1.91,2.62,2.13,3.95.22,1.33-.06,2.57-.92,3.4-.03.02-.04.05-.06.06-1.27,1.2-2.23,2.1-3.19,3-.97.9-1.94,1.81-3.26,3.02-.84.78-1.27,1.98-1.07,3.43.2,1.43,1,2.83,2.13,3.93,1.12,1.11,2.59,1.93,4.11,2.19.17.03.32.05.48.07.99.1,1.82-.27,2.33-.91.47-.59,1.11-1.03,1.9-1.25.79-.23,1.71-.24,2.73,0,1.54.35,3.04,1.27,4.25,2.46,1.2,1.2,2.11,2.68,2.44,4.17.38,1.67-.01,3.04-.93,3.91Z"/>
      </g>
    </g>
  </g>
</svg>