<?xml version="1.0" encoding="UTF-8"?>
<svg id="Layer_2" data-name="Layer 2" xmlns="http://www.w3.org/2000/svg" width="211.04" height="211.04" viewBox="0 0 211.04 211.04">
  <defs>
    <style>
      .cls-1 {
        fill: #009eda;
      }

      .cls-2 {
        fill: #0091c7;
      }

      .cls-3 {
        fill: #00adee;
      }

      .cls-4 {
        fill: #fff;
      }
    </style>
  </defs>
  <g id="Layer_1-2" data-name="Layer 1">
    <g>
      <rect class="cls-2" x="30.91" y="30.91" width="149.23" height="149.23" transform="translate(-43.71 105.52) rotate(-45)"/>
      <g>
        <polygon class="cls-3" points="205.74 105.52 105.52 205.74 105.52 105.52 205.74 105.52"/>
        <polygon class="cls-1" points="205.74 105.52 105.52 105.52 105.52 5.3 205.74 105.52"/>
        <polygon class="cls-3" points="105.52 5.3 105.52 105.52 5.3 105.52 105.52 5.3"/>
        <polygon class="cls-1" points="105.52 105.52 105.52 205.74 5.3 105.52 105.52 105.52"/>
      </g>
      <g>
        <polygon class="cls-3" points="105.52 155.63 55.41 105.52 105.52 105.52 105.52 155.63"/>
        <polygon class="cls-1" points="105.52 155.63 105.52 105.52 155.63 105.52 105.52 155.63"/>
        <polygon class="cls-3" points="155.63 105.52 105.52 105.52 105.52 55.41 155.63 105.52"/>
        <polygon class="cls-1" points="105.52 105.52 55.41 105.52 105.52 55.41 105.52 105.52"/>
      </g>
      <path class="cls-4" d="M109.41,146.48c-5.34,0-10.36-1.06-15.06-3.19-4.7-2.12-8.83-5.07-12.38-8.83-3.55-3.76-6.34-8.11-8.35-13.06-2.01-4.95-3.02-10.24-3.02-15.88s1.01-10.99,3.02-15.94c2.01-4.94,4.79-9.29,8.35-13.03,3.55-3.74,7.68-6.67,12.38-8.8,4.7-2.12,9.72-3.19,15.06-3.19,6.39,0,12.28,1.48,17.66,4.43,5.38,2.95,9.83,6.89,13.37,11.82l-15.12,8.12c-1.96-2.26-4.31-4.06-7.05-5.42-2.75-1.35-5.7-2.03-8.86-2.03s-5.84.62-8.49,1.86-4.98,2.96-7,5.16c-2.01,2.2-3.58,4.75-4.71,7.64-1.13,2.9-1.69,6.02-1.69,9.36s.56,6.41,1.69,9.31c1.13,2.9,2.7,5.44,4.71,7.64,2.01,2.2,4.34,3.93,7,5.19,2.65,1.26,5.48,1.89,8.49,1.89,3.16,0,6.11-.69,8.86-2.06s5.09-3.21,7.05-5.5l15.12,8.24c-3.54,4.89-7.99,8.82-13.37,11.79-5.38,2.97-11.26,4.46-17.66,4.46Z"/>
    </g>
  </g>
</svg>