<?xml version="1.0" encoding="UTF-8"?>
<svg id="Layer_2" data-name="Layer 2" xmlns="http://www.w3.org/2000/svg" width="123.87" height="107.23" viewBox="0 0 123.87 107.23">
  <defs>
    <style>
      .cls-1 {
        fill: #a6a6a6;
      }

      .cls-2 {
        fill: #dcdcdc;
      }
    </style>
  </defs>
  <g id="Layer_1-2" data-name="Layer 1">
    <g>
      <path class="cls-1" d="M61.94,107.23c-2.27,0-4.41-.88-6.01-2.49L10.32,59.14C3.67,52.49-.09,43.25,0,33.78.09,24.49,3.75,15.9,10.3,9.59,16.73,3.41,25.18,0,34.11,0s17.05,3.27,23.43,9.23h.03l.84.83c1.28,1.28,2.46,2.67,3.53,4.12,1.06-1.46,2.24-2.84,3.52-4.12l.83-.83h.04c6.38-5.96,14.66-9.23,23.43-9.23s17.38,3.41,23.81,9.59c6.55,6.31,10.21,14.9,10.3,24.19.09,9.47-3.67,18.71-10.32,25.36l-45.6,45.6c-1.61,1.61-3.74,2.49-6.01,2.49Z"/>
      <path class="cls-2" d="M111.6,11.64C99.26-.24,79.64-.1,67.47,12.07h-.01c-1.67,1.67-3.11,3.48-4.33,5.39-.57.89-1.84.89-2.41,0-1.22-1.91-2.66-3.72-4.33-5.39h-.01C44.23-.1,24.61-.24,12.27,11.64-.47,23.89-.17,44.64,12.33,57.14l45.6,45.6c2.21,2.21,5.8,2.21,8.02,0l45.6-45.6c12.5-12.5,12.8-33.25.06-45.5Z"/>
    </g>
  </g>
</svg>