<?xml version="1.0" encoding="UTF-8"?>
<svg id="Layer_2" data-name="Layer 2" xmlns="http://www.w3.org/2000/svg" width="215.43" height="107.72" viewBox="0 0 215.43 107.72">
  <defs>
    <style>
      .cls-1 {
        fill: #009eda;
      }

      .cls-2 {
        fill: #0091c7;
      }

      .cls-3 {
        fill: #00adee;
      }

      .cls-4 {
        fill: #fff;
      }

      .cls-5 {
        fill: #6dcff6;
      }
    </style>
  </defs>
  <g id="Layer_1-2" data-name="Layer 1">
    <g>
      <g>
        <polygon class="cls-2" points="215.43 53.86 161.58 107.72 53.86 107.72 53.86 0 161.58 0 215.43 53.86"/>
        <polygon class="cls-5" points="55.93 105.65 55.93 2.07 160.72 2.07 212.51 53.86 160.72 105.65 55.93 105.65"/>
      </g>
      <g>
        <rect class="cls-2" x="15.77" y="15.77" width="76.17" height="76.17" transform="translate(-22.31 53.86) rotate(-45)"/>
        <g>
          <polygon class="cls-3" points="105.01 53.86 53.86 105.01 53.86 53.86 105.01 53.86"/>
          <polygon class="cls-1" points="105.01 53.86 53.86 53.86 53.86 2.7 105.01 53.86"/>
          <polygon class="cls-3" points="53.86 2.7 53.86 53.86 2.7 53.86 53.86 2.7"/>
          <polygon class="cls-1" points="53.86 53.86 53.86 105.01 2.7 53.86 53.86 53.86"/>
        </g>
        <g>
          <polygon class="cls-3" points="53.86 79.43 28.28 53.86 53.86 53.86 53.86 79.43"/>
          <polygon class="cls-1" points="53.86 79.43 53.86 53.86 79.43 53.86 53.86 79.43"/>
          <polygon class="cls-3" points="79.43 53.86 53.86 53.86 53.86 28.28 79.43 53.86"/>
          <polygon class="cls-1" points="53.86 53.86 28.28 53.86 53.86 28.28 53.86 53.86"/>
        </g>
        <path class="cls-4" d="M55.85,74.76c-2.73,0-5.29-.54-7.69-1.63-2.4-1.08-4.51-2.59-6.32-4.51-1.81-1.92-3.23-4.14-4.26-6.67-1.03-2.52-1.54-5.23-1.54-8.11s.51-5.61,1.54-8.13c1.03-2.52,2.45-4.74,4.26-6.65,1.81-1.91,3.92-3.41,6.32-4.49,2.4-1.08,4.96-1.63,7.69-1.63,3.26,0,6.27.75,9.01,2.26,2.74,1.51,5.02,3.52,6.82,6.03l-7.72,4.15c-1-1.15-2.2-2.07-3.6-2.76-1.4-.69-2.91-1.04-4.52-1.04s-2.98.32-4.33.95-2.54,1.51-3.57,2.63c-1.03,1.12-1.83,2.42-2.4,3.9-.58,1.48-.86,3.07-.86,4.78s.29,3.27.86,4.75c.58,1.48,1.38,2.78,2.4,3.9,1.03,1.12,2.22,2.01,3.57,2.65,1.35.64,2.8.96,4.33.96,1.61,0,3.12-.35,4.52-1.05s2.6-1.64,3.6-2.81l7.72,4.2c-1.8,2.5-4.08,4.5-6.82,6.02-2.75,1.52-5.75,2.27-9.01,2.27Z"/>
      </g>
    </g>
  </g>
</svg>