<?xml version="1.0" encoding="UTF-8"?>
<svg id="Layer_2" data-name="Layer 2" xmlns="http://www.w3.org/2000/svg" width="215.43" height="107.72" viewBox="0 0 215.43 107.72">
  <defs>
    <style>
      .cls-1 {
        fill: #fff45f;
      }

      .cls-2 {
        fill: #231f20;
      }

      .cls-3 {
        fill: #fff100;
      }

      .cls-4 {
        fill: #eddb00;
      }

      .cls-5 {
        fill: #d7c700;
      }
    </style>
  </defs>
  <g id="Layer_1-2" data-name="Layer 1">
    <g>
      <g>
        <polygon class="cls-5" points="215.43 53.86 161.58 107.72 53.86 107.72 53.86 0 161.58 0 215.43 53.86"/>
        <polygon class="cls-1" points="55.93 105.65 55.93 2.07 160.72 2.07 212.51 53.86 160.72 105.65 55.93 105.65"/>
      </g>
      <g>
        <rect class="cls-5" x="15.77" y="15.77" width="76.17" height="76.17" transform="translate(-22.31 53.86) rotate(-45)"/>
        <g>
          <polygon class="cls-3" points="105.01 53.86 53.86 105.01 53.86 53.86 105.01 53.86"/>
          <polygon class="cls-4" points="105.01 53.86 53.86 53.86 53.86 2.7 105.01 53.86"/>
          <polygon class="cls-3" points="53.86 2.7 53.86 53.86 2.7 53.86 53.86 2.7"/>
          <polygon class="cls-4" points="53.86 53.86 53.86 105.01 2.7 53.86 53.86 53.86"/>
        </g>
        <g>
          <polygon class="cls-3" points="53.86 79.43 28.28 53.86 53.86 53.86 53.86 79.43"/>
          <polygon class="cls-4" points="53.86 79.43 53.86 53.86 79.43 53.86 53.86 79.43"/>
          <polygon class="cls-3" points="79.43 53.86 53.86 53.86 53.86 28.28 79.43 53.86"/>
          <polygon class="cls-4" points="53.86 53.86 28.28 53.86 53.86 28.28 53.86 53.86"/>
        </g>
        <path class="cls-2" d="M61.98,33.7h10.19l-13.99,22.17v18.14h-8.64v-18.14l-13.99-22.17h10.19l8.12,12.78,8.12-12.78Z"/>
      </g>
    </g>
  </g>
</svg>