<?xml version="1.0" encoding="UTF-8"?>
<svg id="Layer_2" data-name="Layer 2" xmlns="http://www.w3.org/2000/svg" width="97.8" height="85.04" viewBox="0 0 97.8 85.04">
  <defs>
    <style>
      .cls-1 {
        fill: #e5a80e;
      }

      .cls-2 {
        fill: #fff;
      }

      .cls-3 {
        fill: #ffc20e;
      }

      .cls-4 {
        fill: #f9b710;
      }
    </style>
  </defs>
  <g id="Layer_1-2" data-name="Layer 1">
    <g>
      <g>
        <path class="cls-3" d="M17.72,0v85.04H5.67c-3.13,0-5.67-2.54-5.67-5.67V5.67C0,2.54,2.54,0,5.67,0h12.05Z"/>
        <path class="cls-4" d="M70.87,5.67v73.7c0,3.13-2.54,5.67-5.67,5.67H17.72V0h47.48c3.13,0,5.67,2.54,5.67,5.67Z"/>
      </g>
      <path class="cls-1" d="M76.54,10.63h-5.67v11.34h5.67c5.47,0,9.92,4.45,9.92,9.92v21.26c0,5.47-4.45,9.92-9.92,9.92h-5.67v11.34h5.67c11.74,0,21.26-9.52,21.26-21.26v-21.26c0-11.74-9.52-21.26-21.26-21.26Z"/>
      <g>
        <circle cx="53.82" cy="35.34" r="2.97"/>
        <path class="cls-2" d="M54.12,44.57c-2.41-.1-4.56.99-5.93,2.72-.74.94-1.81,1.59-3,1.7-.19.02-.38.03-.57.03-1.8,0-3.42-.73-4.59-1.9s-1.9-2.8-1.9-4.59.73-3.42,1.9-4.59l9.14-9.14s.06-.06.09-.1c2.49-2.54,2.48-6.62-.05-9.14-2.54-2.54-6.65-2.54-9.19,0l-9.19,9.19c-1.18,1.17-2.81,1.9-4.6,1.9-.19,0-.38,0-.57-.02-1.2-.11-2.26-.76-3-1.7-1.37-1.74-3.52-2.83-5.93-2.73-3.65.15-6.66,3.15-6.83,6.8-.19,4.1,3.08,7.49,7.14,7.49,2.27,0,4.3-1.06,5.61-2.71.75-.95,1.81-1.61,3.01-1.72.19-.02.38-.03.57-.03,1.79,0,3.42.73,4.6,1.9,1.17,1.17,1.9,2.8,1.9,4.59s-.73,3.42-1.9,4.59l-9.06,9.06c-2.47,2.47-2.7,6.48-.36,9.07,2.5,2.76,6.75,2.86,9.37.29.03-.03.06-.06.1-.09l9.14-9.14c1.17-1.18,2.8-1.9,4.59-1.9.19,0,.38,0,.57.02,1.2.11,2.27.77,3.02,1.72,1.31,1.65,3.33,2.71,5.6,2.71,4.06,0,7.33-3.38,7.14-7.49-.17-3.65-3.18-6.65-6.83-6.8Z"/>
      </g>
    </g>
  </g>
</svg>