<?xml version="1.0" encoding="UTF-8"?>
<svg id="Layer_2" data-name="Layer 2" xmlns="http://www.w3.org/2000/svg" width="158.45" height="147.74" viewBox="0 0 158.45 147.74">
  <defs>
    <style>
      .cls-1 {
        fill: #e5a80e;
      }

      .cls-2 {
        fill: #fff;
      }

      .cls-3 {
        fill: #ffc20e;
      }

      .cls-4 {
        fill: #f9b710;
      }
    </style>
  </defs>
  <g id="Layer_1-2" data-name="Layer 1">
    <g>
      <path class="cls-3" d="M156.9,77.2l-22.02,11.16c-1.51.77-3.36.04-3.94-1.55l-7.82-21.29c-.27-.74-1.37-.55-1.37.24v76.31c0,3.13-2.54,5.67-5.67,5.67H42.37c-3.13,0-5.67-2.54-5.67-5.67v-76.31c0-.79-1.1-.99-1.37-.24l-7.82,21.29c-.58,1.59-2.43,2.32-3.94,1.55L1.56,77.2c-1.32-.67-1.91-2.25-1.33-3.62L20.24,25.67c1.47-3.51,4.28-6.28,7.81-7.7l27.09-10.83h.01c-.06,2.5.13,6.12,1.4,10.27,1.44,4.73,3.68,8.17,5.29,10.27l10.33-6.07c.85.61,3.4,2.26,7.05,2.26s6.19-1.65,7.04-2.26l10.33,6.07c1.61-2.1,3.85-5.54,5.29-10.27,1.27-4.15,1.46-7.78,1.4-10.27h.01s27.1,10.83,27.1,10.83c3.53,1.41,6.35,4.19,7.81,7.69l20.02,47.91c.57,1.37,0,2.95-1.33,3.62Z"/>
      <path class="cls-4" d="M75.85,21.13h6.74v26.26c0,1.56-1.27,2.83-2.83,2.83h-1.07c-1.56,0-2.83-1.27-2.83-2.83v-26.26h0Z"/>
      <path class="cls-1" d="M103.3,7.13c0-1.97-.8-3.75-2.09-5.04-1.29-1.29-3.07-2.09-5.04-2.09h-33.89c-1.97,0-3.75.8-5.04,2.09-1.29,1.29-2.09,3.07-2.09,5.04h0c0,.06.01.11.01.16-.05,2.49.16,6.05,1.4,10.12,1.44,4.73,3.68,8.17,5.29,10.27l10.33-6.07c.85.61,3.4,2.26,7.05,2.26s6.19-1.65,7.04-2.26l10.33,6.07c1.61-2.1,3.85-5.54,5.29-10.27,1.24-4.07,1.45-7.63,1.4-10.12,0-.05.01-.11.01-.16Z"/>
      <path class="cls-4" d="M95.7,6.01l-13.16,13.48c-1.7,1.74-4.91,1.74-6.61,0l-13.17-13.48h32.94Z"/>
      <circle class="cls-1" cx="79.23" cy="31.9" r="1.42"/>
      <circle class="cls-1" cx="79.23" cy="41.02" r="1.42"/>
      <g>
        <path class="cls-1" d="M156.9,77.2l-22.02,11.16c-1.51.77-3.36.04-3.94-1.55l-.87-2.37,5.09-2.58,21.9-11.09,1.17,2.81c.57,1.37,0,2.95-1.33,3.62Z"/>
        <path class="cls-1" d="M28.39,84.44l-.87,2.37c-.59,1.59-2.43,2.32-3.94,1.55L1.55,77.2c-1.32-.67-1.91-2.25-1.33-3.62l1.18-2.82,5.07,2.57,16.83,8.53,5.09,2.58Z"/>
      </g>
      <g>
        <circle cx="109.76" cy="46.25" r="1.22"/>
        <path class="cls-2" d="M109.88,50.07c-.99-.04-1.88.41-2.45,1.12-.31.39-.75.66-1.24.7-.08,0-.16.01-.24.01-.74,0-1.41-.3-1.9-.79s-.79-1.15-.79-1.9.3-1.41.79-1.9l3.77-3.77s.02-.03.04-.04c1.03-1.05,1.02-2.73-.02-3.77-1.05-1.05-2.75-1.05-3.79,0l-3.79,3.79c-.49.48-1.16.79-1.9.79-.08,0-.16,0-.23-.01-.49-.04-.93-.31-1.24-.7-.56-.72-1.45-1.17-2.45-1.13-1.51.06-2.75,1.3-2.82,2.81-.08,1.69,1.27,3.09,2.95,3.09.94,0,1.77-.44,2.31-1.12.31-.39.75-.66,1.24-.71.08,0,.16-.01.23-.01.74,0,1.41.3,1.9.79.48.48.79,1.15.79,1.9s-.3,1.41-.79,1.9l-3.74,3.74c-1.02,1.02-1.11,2.67-.15,3.74,1.03,1.14,2.79,1.18,3.87.12.01-.01.03-.03.04-.04l3.77-3.77c.48-.49,1.15-.79,1.9-.79.08,0,.16,0,.23.01.5.04.94.32,1.25.71.54.68,1.38,1.12,2.31,1.12,1.68,0,3.02-1.4,2.95-3.09-.07-1.51-1.31-2.74-2.82-2.81Z"/>
      </g>
    </g>
  </g>
</svg>