<?xml version="1.0" encoding="UTF-8"?>
<svg id="Layer_2" data-name="Layer 2" xmlns="http://www.w3.org/2000/svg" width="221.1" height="136.06" viewBox="0 0 221.1 136.06">
  <defs>
    <style>
      .cls-1 {
        fill: #e5a80e;
      }

      .cls-2 {
        fill: #fff;
      }

      .cls-3 {
        fill: #ffc20e;
      }
    </style>
  </defs>
  <g id="Layer_1-2" data-name="Layer 1">
    <g>
      <g>
        <g>
          <path class="cls-1" d="M53.86-42.52h113.39c6.26,0,11.34,5.08,11.34,11.34v198.42c0,6.26-5.08,11.34-11.34,11.34H53.86c-6.26,0-11.34-5.08-11.34-11.34V-31.18c0-6.26,5.08-11.34,11.34-11.34Z" transform="translate(178.58 -42.52) rotate(90)"/>
          <path class="cls-3" d="M53.86-39.68h113.39c4.69,0,8.5,3.81,8.5,8.5v198.42c0,4.69-3.81,8.5-8.5,8.5H53.86c-4.69,0-8.5-3.81-8.5-8.5V-31.18c0-4.69,3.81-8.5,8.5-8.5Z" transform="translate(178.58 -42.52) rotate(90)"/>
        </g>
        <circle class="cls-1" cx="11.34" cy="124.73" r="2.83"/>
        <circle class="cls-1" cx="209.76" cy="124.73" r="2.83"/>
        <circle class="cls-1" cx="209.76" cy="11.34" r="2.83"/>
        <circle class="cls-1" cx="11.34" cy="11.34" r="2.83"/>
      </g>
      <g>
        <circle cx="145.13" cy="54.52" r="5.58"/>
        <path class="cls-2" d="M145.7,71.88c-4.52-.19-8.58,1.86-11.15,5.12-1.39,1.77-3.39,2.99-5.64,3.19-.35.03-.71.05-1.08.05-3.38,0-6.43-1.37-8.64-3.58-2.21-2.21-3.58-5.26-3.58-8.64s1.37-6.43,3.58-8.64l17.19-17.19c.05-.06.11-.12.17-.18,4.69-4.78,4.66-12.45-.09-17.19-4.77-4.77-12.51-4.77-17.28,0l-17.28,17.29c-2.22,2.21-5.28,3.58-8.65,3.58-.36,0-.71-.02-1.06-.05-2.25-.2-4.25-1.42-5.65-3.2-2.57-3.27-6.62-5.32-11.15-5.13-6.87.29-12.53,5.93-12.85,12.79-.36,7.71,5.79,14.08,13.43,14.08,4.27,0,8.08-2,10.54-5.11,1.41-1.78,3.41-3.02,5.67-3.23.35-.03.71-.05,1.07-.05,3.37,0,6.43,1.37,8.65,3.58,2.21,2.21,3.58,5.26,3.58,8.64s-1.37,6.43-3.58,8.64l-17.05,17.05c-4.64,4.64-5.08,12.19-.68,17.05,4.7,5.2,12.69,5.39,17.63.55.06-.06.12-.12.18-.17l17.19-17.19c2.21-2.22,5.26-3.58,8.64-3.58.36,0,.72.02,1.07.05,2.26.2,4.27,1.45,5.68,3.23,2.46,3.11,6.27,5.1,10.54,5.1,7.63,0,13.78-6.36,13.43-14.08-.32-6.86-5.98-12.5-12.84-12.79Z"/>
      </g>
    </g>
  </g>
</svg>